<?xml version="1.0" encoding="UTF-8" standalone="no"?><!DOCTYPE svg PUBLIC "-//W3C//DTD SVG 1.1//EN" "http://www.w3.org/Graphics/SVG/1.1/DTD/svg11.dtd"><svg width="100%" height="100%" viewBox="0 0 461 116" version="1.1" xmlns="http://www.w3.org/2000/svg" xmlns:xlink="http://www.w3.org/1999/xlink" xml:space="preserve" xmlns:serif="http://www.serif.com/" style="fill-rule:evenodd;clip-rule:evenodd;stroke-linejoin:round;stroke-miterlimit:1.41421;"><g transform="matrix(0.227187,0,0,0.227187,-58.398,26.0668)"><path d="M364.616,228.16l18.111,0c1.678,0 3.411,0.146 4.943,-0.687c3.66,-1.975 2.566,-6.602 -1.192,-7.623c-1.343,-0.365 -2.936,-0.207 -4.328,-0.207c-4.864,0 -9.728,0 -14.585,0c-1.806,0 -3.861,-0.237 -5.527,0.584c-4.669,2.292 -1.969,7.933 2.578,7.933l0,0Zm27.37,8.518c-3.149,0 -6.298,0 -9.447,0c-3.162,0 -8.433,-0.918 -10.743,1.806c-2.201,2.608 -0.115,5.879 2.821,6.559c1.173,0.268 2.511,0.152 3.715,0.152c4.061,0 8.122,0 12.183,0c2.061,0 4.189,-0.079 5.648,-1.805c2.663,-3.155 -0.784,-6.712 -4.177,-6.712l0,0Zm-28.221,-25.553c5.49,0 5.49,-8.517 0,-8.517c-5.496,0 -5.496,8.517 0,8.517Zm0,25.553c-5.496,0 -5.496,8.517 0,8.517c5.49,0 5.49,-8.517 0,-8.517Zm216.148,-175.676c-0.317,-14.962 -2.523,-29.68 -7.278,-43.907c-5.587,-16.694 -14.305,-32.264 -25.577,-45.785c-22.61,-27.121 -55.16,-45.153 -90.172,-49.798c-15.375,-2.043 -31.158,-1.222 -46.636,-1.222c-12.275,0 -24.422,0.474 -36.496,3.004c-17.935,3.751 -35.134,11.101 -50.291,21.394c-29.613,20.117 -51.026,51.33 -58.826,86.299c-4.201,18.817 -3.429,38.016 -3.429,57.154l0,255.355c0,0.353 -0.243,1.903 0,2.189c0.122,0.14 0.833,0.036 1.034,0.036l91.777,0c0.937,0 0.773,0.165 0.888,-0.583c0.164,-1.076 0,-2.304 0,-3.393l0,-276.11c0,-4.809 0.097,-9.545 1.161,-14.263c2.019,-8.931 6.706,-17.163 13.223,-23.57c6.414,-6.311 14.555,-10.81 23.364,-12.725c4.542,-0.985 9.059,-1.088 13.679,-1.088l29.815,0c7.149,0 14.135,0.942 20.767,3.769c17.139,7.302 28.599,24.203 29.268,42.758c0.231,6.426 0.042,12.895 0.042,19.327c0,7.435 0,14.871 0,22.3c0,6.341 -0.857,12.621 -3.173,18.561c-3.308,8.487 -9.004,15.831 -16.257,21.315c-7.119,5.38 -15.807,8.627 -24.702,9.302c-3.222,0.249 -6.462,0.17 -9.696,0.17l-37.816,0c-1.738,0 -3.465,-0.061 -4.979,1.009c-3.064,2.158 -1.811,6.201 1.508,7.241c1.21,0.383 2.553,0.273 3.812,0.273l19.321,0c1.392,0 2.833,-0.097 4.183,0.304c3.356,0.997 5.125,4.797 1.787,7.083c-1.544,1.052 -3.325,1.131 -5.119,1.131l-32.909,0c-1.702,0 -3.423,-0.049 -5.125,0c-2.657,0.073 -5.855,1.885 -5.168,5.022c0.912,4.201 6.232,3.495 9.442,3.495l45.682,0c3.186,0 9.15,-0.316 9.15,4.256c0,4.317 -5.405,4.262 -8.493,4.262l-34.095,0c-1.58,0 -3.161,-0.012 -4.736,0c-2.875,0.012 -6.797,1.799 -5.611,5.386c1.161,3.527 5.253,3.131 8.201,3.131l35.146,0c1.259,0 2.529,-0.042 3.788,0c2.9,0.092 7.429,2.45 5.289,5.995c-1.921,3.186 -6.59,2.523 -9.764,2.523c-4.815,0 -9.63,0 -14.445,0c-3.094,0 -6.189,-0.018 -9.283,0c-2.396,0.012 -5.198,0.802 -5.788,3.496c-0.754,3.459 2.936,5.003 5.715,5.021c3.654,0.025 7.314,-0.042 10.967,0c2.493,0.031 6.068,1.204 6.068,4.262c0,3.034 -3.532,4.201 -5.995,4.256c-4.049,0.091 -8.104,0 -12.153,0c-1.465,0 -3.137,-0.176 -4.572,0.213c-3.422,0.93 -4.894,5.058 -1.72,7.301c1.629,1.155 3.556,1.003 5.441,1.003l27.796,0c1.891,0 3.781,0.013 5.423,1.131c3.204,2.189 1.714,5.928 -1.569,7.016c-2.754,0.918 -6.711,0.371 -9.593,0.371c-4.669,0 -9.332,0 -14.001,0c-1.192,0 -2.499,-0.116 -3.66,0.152c-3.302,0.766 -5.18,4.669 -2.256,7.113c1.739,1.459 3.958,1.252 6.061,1.252c2.183,0 4.372,0 6.554,0c15.832,0 31.736,0.614 47.409,-2.055c34.958,-5.958 66.936,-25.467 88.482,-53.603c10.451,-13.649 18.446,-29.255 23.328,-45.743c4.225,-14.251 5.824,-28.878 5.824,-43.7c0,-13.023 0.103,-26.057 -0.012,-39.086l0,0Zm-148.008,107.53c-5.49,0 -5.49,-8.518 0,-8.518c5.496,0 5.496,8.518 0,8.518Zm-0.115,51.111c-5.49,0 -5.49,-8.518 0,-8.518c5.489,0 5.489,8.518 0,8.518Zm18.044,-285.467c0.456,-2.262 3.003,-3.295 5.088,-2.997c3.265,0.365 6.506,0.93 9.722,1.593c2.529,0.516 5.259,0.887 7.678,1.799c1.818,0.687 3.545,2.462 3.162,4.554c-0.426,2.346 -3.016,3.319 -5.138,2.961c-3.106,-0.517 -6.158,-1.478 -9.253,-2.061c-2.505,-0.475 -5.125,-0.602 -7.599,-1.18c-2.079,-0.486 -4.134,-2.347 -3.66,-4.669l0,0Zm5.295,30.513c5.648,0.967 11.551,2.256 16.859,4.469c1.921,0.802 3.818,2.772 3.149,5.034c-0.644,2.182 -3.149,2.955 -5.18,2.499c-2.894,-0.645 -5.708,-1.922 -8.596,-2.669c-2.633,-0.687 -5.387,-0.997 -8.001,-1.739c-2.049,-0.584 -4.013,-2.487 -3.465,-4.791c0.535,-2.243 3.161,-3.204 5.234,-2.803l0,0Zm-12.676,-34.477c5.478,0.152 4.444,8.755 -0.845,7.733c-4.553,-0.881 -3.866,-7.854 0.845,-7.733Zm-12.737,57.397c-5.064,0 -5.003,-7.806 0,-7.806c4.998,0 5.071,7.806 0,7.806Zm1.411,-33.127c-1.684,0.024 -3.405,-0.353 -4.511,-1.727c-1.204,-1.489 -0.967,-3.514 0.419,-4.797c1.678,-1.544 3.97,-1.282 6.074,-1.288c2.638,0 5.277,0.006 7.915,0.06c1.709,0.037 3.642,-0.127 5.211,0.657c1.58,0.796 2.723,2.456 2.219,4.256c-1.21,4.359 -7.709,2.851 -10.962,2.839c-2.122,-0.006 -4.243,0 -6.365,0l0,0Zm15.102,13.01c-0.444,4.937 -7.788,4.56 -7.801,-0.353c-0.006,-5.094 8.269,-4.815 7.801,0.353Zm-7.764,13.46c2.237,-1.696 6.548,-0.979 9.18,-0.608c2.821,0.402 5.697,0.766 8.469,1.417c1.909,0.444 4.128,0.875 5.332,2.572c1.27,1.775 0.638,4 -1.198,5.088c-2.365,1.405 -4.839,0.091 -7.271,-0.359c-2.742,-0.504 -5.593,-1.003 -8.372,-1.136c-1.422,-0.073 -3.137,0.042 -4.492,-0.456c-2.755,-1.022 -4.189,-4.42 -1.648,-6.518l0,0Zm55.586,66.061c-5.922,-22.592 -26.623,-40.855 -50.175,-42.569c-2.59,-0.189 -6.171,-1.538 -5.362,-4.912c0.942,-3.958 6.383,-2.87 9.198,-2.438c2.967,0.456 5.806,1.088 8.712,1.842c12.263,3.173 23.565,10.919 31.735,20.476c5.417,6.335 9.302,13.521 12.16,21.321c0.571,1.556 1.143,3.192 1.398,4.839c0.322,2.092 -0.511,4.566 -2.839,4.998c-2.213,0.413 -4.305,-1.526 -4.827,-3.557l0,0Zm5.897,14.774c-2.013,-0.025 -3.982,-1.563 -4.092,-3.654c-0.115,-2.213 1.891,-4.183 4.08,-4.159c4.875,0.055 4.821,7.867 0.012,7.813l0,0Zm20.47,8.207c0.03,1.921 -0.535,4.006 -2.39,4.949c-2.067,1.039 -4.225,-0.316 -5.027,-2.292c-0.906,-2.225 -0.396,-5.308 -0.396,-7.648c0,-6.317 -0.383,-12.585 -1.714,-18.774c-2.11,-9.843 -6.304,-19.224 -12.141,-27.425c-4.851,-6.821 -10.779,-12.445 -17.448,-17.443c-3.721,-2.784 -7.873,-4.942 -12.044,-6.955c-1.435,-0.693 -2.882,-1.453 -3.581,-2.966c-1.118,-2.408 0.48,-4.73 2.973,-5.089c2.505,-0.353 5.229,1.581 7.375,2.657c1.866,0.93 3.623,2.012 5.398,3.094c13.515,8.226 24.428,20.665 31.164,34.952c3.636,7.703 5.788,15.776 7.071,24.16c0.784,5.131 0.76,10.384 0.76,15.564c0,1.07 0,2.146 0,3.216l0,0Zm0.705,-48.138c-1.988,-0.833 -2.742,-2.852 -3.739,-4.602c-1.246,-2.183 -2.578,-4.311 -3.988,-6.39c-2.772,-4.067 -5.879,-7.873 -9.253,-11.454c-6.639,-7.046 -14.458,-12.937 -22.945,-17.57c-1.428,-0.778 -2.669,-1.806 -3.039,-3.484c-0.371,-1.696 0.449,-3.356 2.079,-4c2.152,-0.851 4.11,0.304 5.946,1.331c2.121,1.186 4.195,2.444 6.219,3.782c8.244,5.435 15.637,12.08 21.941,19.673c3.532,4.256 6.688,8.84 9.472,13.619c1.028,1.775 2.493,3.806 2.359,5.958c-0.164,2.602 -2.614,4.189 -5.052,3.137l0,0Zm5.532,18.798c-0.735,-3.089 -1.635,-6.134 -2.723,-9.12c-0.651,-1.909 -0.864,-4.103 0.778,-5.617c1.708,-1.575 4.116,-0.851 5.465,0.802c1.77,2.171 2.372,5.788 3.107,8.433c0.839,2.985 1.526,6.013 2.085,9.065c0.341,1.86 0.432,3.811 -1.039,5.258c-1.636,1.611 -4.08,1.083 -5.417,-0.62c-1.672,-2.122 -1.648,-5.654 -2.256,-8.201l0,0Zm6.42,21.133c-4.96,-0.037 -5.24,-7.387 -0.352,-7.795c5.113,-0.431 5.514,7.831 0.352,7.795l0,0Zm4.949,-39.889c-4.365,-10.809 -10.451,-20.865 -18.038,-29.723c-14.919,-17.424 -35.067,-29.674 -57.391,-34.915c-3.034,-0.711 -9.199,-0.723 -10.275,-4.432c-0.662,-2.292 1.186,-4.219 3.362,-4.572c1.435,-0.237 3.01,0.25 4.414,0.505c9.867,1.83 19.467,5.076 28.489,9.46c20.756,10.098 38.21,26.379 49.707,46.405c5.605,9.764 9.745,20.318 12.28,31.286c0.961,4.146 1.642,8.329 2.177,12.548c0.219,1.715 0.644,3.715 0.225,5.423c-0.541,2.219 -2.693,3.909 -4.973,2.906c-2.548,-1.125 -2.59,-3.824 -2.852,-6.195c-1.27,-9.855 -3.392,-19.449 -7.125,-28.696l0,0Zm15.521,48.096c0.031,1.872 -0.48,3.848 -2.219,4.845c-1.842,1.058 -3.927,0.152 -4.924,-1.599c-1.119,-1.982 -0.681,-4.9 -0.669,-7.094c0.012,-1.806 0.42,-3.685 2.037,-4.743c1.696,-1.1 3.769,-0.462 4.876,1.137c1.404,2.025 0.899,5.125 0.899,7.454l0,0Zm0.815,-51.78c-3.769,-9.557 -8.384,-18.689 -14.293,-27.109c-12.208,-17.406 -28.586,-31.297 -47.603,-40.757c-2.675,-1.332 -5.447,-2.517 -8.226,-3.612c-2,-0.784 -4.286,-1.434 -5.192,-3.605c-0.875,-2.097 0.347,-4.219 2.481,-4.797c2.535,-0.687 5.745,1.143 8.031,2.11c2.492,1.058 5.003,2.195 7.405,3.435c20.439,10.554 38.502,25.741 51.129,45.117c2.608,4.006 5.076,8.085 7.253,12.335c1.459,2.839 2.827,5.697 4.11,8.609c1.222,2.79 5.076,10.001 -0.079,11.363c-2.207,0.583 -4.25,-1.125 -5.016,-3.089l0,0Zm6.7,26.197c-0.201,-1.489 -0.438,-2.973 -0.712,-4.45c-0.559,-3.058 -1.246,-6.092 -1.963,-9.114c-0.56,-1.823 -0.517,-3.903 0.973,-5.295c1.556,-1.447 3.763,-1.046 5.137,0.426c1.787,1.909 2.012,5.24 2.553,7.69c0.681,3.107 1.265,6.238 1.702,9.393c0.292,2.122 0.76,4.505 -0.899,6.214c-1.818,1.878 -4.481,1.106 -5.788,-0.93c-0.772,-1.204 -0.815,-2.56 -1.003,-3.934Zm5.143,17.375c-5.113,-0.03 -5.143,-7.794 -0.036,-7.8c4.973,-0.012 4.973,7.831 0.036,7.8l0,0Zm-202.438,115.263c5.49,0 5.49,-8.517 0,-8.517c-5.496,0 -5.496,8.517 0,8.517Zm7.095,29.815c0,4.316 4.997,4.261 8.086,4.261c3.173,0 6.365,0.098 9.539,0c2.134,-0.073 4.462,-1.07 5.076,-3.313c0.742,-2.742 -1.793,-4.876 -4.292,-5.162c-2.748,-0.322 -5.666,-0.042 -8.426,-0.042c-3.326,0 -9.983,-0.778 -9.983,4.256l0,0Zm12.639,-49.288c1.545,-2.711 -0.79,-5.447 -3.483,-5.97c-1.101,-0.213 -2.317,-0.109 -3.441,-0.109c-3.697,0 -7.399,0 -11.096,0c-2.109,0 -4.34,0.432 -5.483,2.438c-1.818,3.198 1.562,6.079 4.614,6.079c2.961,0 5.922,0 8.882,0c3.162,0 8.141,0.845 10.007,-2.438Zm-18.883,36.508c2.438,0 4.882,0 7.32,0c2.949,0 7.338,-0.115 7.551,-4.061c0.213,-3.903 -4.073,-4.456 -6.98,-4.456c-2.62,0 -5.258,-0.085 -7.879,0c-2.273,0.079 -4.833,1.362 -5.1,3.873c-0.31,2.82 2.577,4.644 5.088,4.644l0,0Z" style="fill:none;stroke:#ff1920;stroke-width:2.45px;"/><path d="M696.8,250.618c0,2.957 3.424,2.92 5.539,2.92c2.175,0 4.361,0.066 6.535,0c1.462,-0.05 3.057,-0.733 3.474,-2.27c0.512,-1.879 -1.225,-3.34 -2.936,-3.536c-1.887,-0.221 -3.886,-0.029 -5.777,-0.029c-2.274,0 -6.835,-0.533 -6.835,2.915l0,0Zm-4.277,14.59l12.407,0c1.15,0 2.337,0.1 3.386,-0.471c2.512,-1.353 1.758,-4.523 -0.816,-5.222c-0.921,-0.25 -2.012,-0.142 -2.966,-0.142c-3.332,0 -6.664,0 -9.996,0c-1.232,0 -2.64,-0.162 -3.781,0.4c-3.199,1.57 -1.35,5.435 1.766,5.435l0,0Zm0,-23.345c1.67,0 3.344,0 5.014,0c2.02,0 5.023,-0.079 5.173,-2.782c0.146,-2.674 -2.79,-3.053 -4.781,-3.053c-1.795,0 -3.603,-0.058 -5.398,0c-1.558,0.054 -3.311,0.933 -3.499,2.653c-0.208,1.933 1.766,3.182 3.491,3.182l0,0Zm18.75,29.18c-2.157,0 -4.315,0 -6.472,0c-2.166,0 -5.781,-0.629 -7.36,1.237c-1.507,1.787 -0.079,4.028 1.933,4.494c0.804,0.183 1.72,0.104 2.545,0.104c2.782,0 5.564,0 8.342,0c1.416,0 2.874,-0.054 3.874,-1.237c1.824,-2.161 -0.538,-4.598 -2.862,-4.598l0,0Zm-19.338,0c-3.761,0 -3.761,5.835 0,5.835c3.765,0 3.765,-5.835 0,-5.835Zm0,-40.85c3.765,0 3.765,-5.835 0,-5.835c-3.761,0 -3.761,5.835 0,5.835Zm13.524,-13.34c1.058,-1.858 -0.541,-3.732 -2.387,-4.09c-0.753,-0.146 -1.586,-0.075 -2.357,-0.075c-2.532,0 -5.069,0 -7.601,0c-1.445,0 -2.974,0.295 -3.757,1.67c-1.245,2.191 1.071,4.165 3.161,4.165c2.029,0 4.057,0 6.085,0c2.162,0 5.577,0.579 6.856,-1.67Zm-13.524,36.685c3.765,0 3.765,-5.835 0,-5.835c-3.761,0 -3.761,5.835 0,5.835Zm148.078,-102.913c-0.254,-11.932 -2.332,-23.628 -6.706,-34.761c-4.344,-11.066 -10.775,-21.279 -18.805,-30.042c-16.439,-17.938 -39.371,-29.221 -63.636,-31.2c-6.248,-0.512 -12.57,-0.329 -18.834,-0.329c-4.503,0 -9.005,-0.041 -13.507,0.005c-22.591,0.229 -44.466,8.009 -61.867,22.486c-18.797,15.636 -31.208,38.272 -34.232,62.533c-0.812,6.531 -0.746,13.078 -0.746,19.638l0,186.162c0,0.609 -0.133,0.613 0.492,0.633c2.378,0.071 4.769,0 7.147,0l55.594,0c0.129,0 0.858,0.1 0.958,0c0.133,-0.137 0,-1.066 0,-1.245l0,-178.544c0,-4.661 -0.008,-9.326 -0.004,-13.986c0.008,-5.685 1.22,-11.204 3.961,-16.219c2.807,-5.131 6.935,-9.471 11.933,-12.511c4.902,-2.982 10.42,-4.569 16.151,-4.732c2.399,-0.066 4.807,-0.025 7.21,-0.025c4.765,0 9.529,0 14.298,0c2.899,0 5.798,-0.05 8.672,0.396c5.893,0.92 11.499,3.507 16.039,7.372c4.477,3.811 7.976,8.776 9.9,14.34c1.441,4.169 1.804,8.417 1.804,12.786c0,9.134 0.225,18.297 -0.029,27.423c-0.329,11.932 -7.427,22.94 -18.043,28.351c-4.582,2.336 -9.563,3.428 -14.682,3.532c-1.866,0.037 -3.736,0.004 -5.602,0.004l-22.72,0c-0.928,0 -1.865,-0.029 -2.794,0c-1.816,0.05 -3.978,1.32 -3.516,3.44c0.625,2.87 4.29,2.395 6.51,2.395c3.224,0 6.452,0 9.676,0c2.27,0 6.193,-0.541 7.13,2.182c0.804,2.333 -1.999,3.599 -3.857,3.653c-0.749,0.021 -1.503,0 -2.253,0l-23.007,0c-1.154,0 -2.395,-0.125 -3.461,0.4c-2.216,1.091 -2.233,3.936 0,5.035c0.899,0.442 1.849,0.4 2.811,0.4l34.311,0c0.746,0 1.524,-0.046 2.257,0.096c2.145,0.412 4.132,2.724 2.129,4.619c-1.554,1.462 -4.061,1.12 -6.031,1.12l-22.849,0c-1.3,0 -2.816,-0.191 -4.094,0.104c-2.262,0.525 -3.549,3.195 -1.546,4.874c1.441,1.207 3.778,0.858 5.531,0.858l23.345,0c1.346,0 2.845,-0.175 4.132,0.254c2.232,0.741 3.286,3.294 1.074,4.806c-1.749,1.195 -4.589,0.775 -6.605,0.775c-3.282,0 -6.568,0 -9.85,0c-1.87,0 -3.736,-0.013 -5.606,0c-1.9,0.012 -4.432,1.062 -3.916,3.44c0.413,1.887 2.379,2.395 4.036,2.395c2.512,0 5.036,-0.067 7.547,0c1.85,0.05 4.69,1.299 3.874,3.652c-0.592,1.704 -2.599,2.175 -4.186,2.187c-2.87,0.021 -5.744,0 -8.613,0c-1.116,0 -2.295,-0.108 -3.328,0.4c-2.233,1.095 -2.241,3.932 0,5.035c1.091,0.538 2.395,0.4 3.578,0.4l18.825,0c1.346,0 2.708,0.05 3.82,0.942c2.128,1.707 0.599,4.152 -1.604,4.727c-1.928,0.504 -4.481,0.166 -6.46,0.166c-3.132,0 -6.268,0 -9.404,0c-0.812,0 -1.708,-0.083 -2.508,0.105c-2.27,0.524 -3.548,3.194 -1.541,4.873c1.192,0.999 2.712,0.858 4.153,0.858c1.495,0 2.99,0 4.49,0c4.681,0 9.367,-0.009 14.052,0c9.055,0.012 17.993,-0.908 26.777,-3.224c21.154,-5.573 40.138,-18.53 53.162,-36.094c7.118,-9.596 12.436,-20.521 15.619,-32.033c2.603,-9.425 3.452,-19.042 3.452,-28.78c0.004,-8.709 0.084,-17.422 -0.008,-26.127l0,0Zm-126.062,-88.697c2.262,-2.433 6.131,0.812 4.074,3.469c-2.187,2.816 -6.452,-0.829 -4.074,-3.469l0,0Zm-18.296,2.066c3.765,-0.95 7.663,-1.9 11.545,-2.224c1.545,-0.13 3.432,0.487 3.594,2.294c0.179,1.991 -1.849,2.874 -3.469,3.074c-2.045,0.254 -4.073,0.621 -6.089,1.05c-1.616,0.341 -3.336,1.012 -4.986,1.108c-1.374,0.075 -2.894,-0.733 -3.078,-2.212c-0.187,-1.508 1.146,-2.711 2.483,-3.09l0,0Zm-64.574,87.235c-3.374,0.021 -3.395,-5.352 0.021,-5.343c3.49,0.004 3.49,5.322 -0.021,5.343l0,0Zm5.456,-21.554c-0.533,2.133 -1.02,4.274 -1.416,6.435c-0.317,1.716 -0.258,3.765 -0.916,5.386c-0.517,1.27 -1.846,2.315 -3.262,1.857c-1.653,-0.537 -1.932,-2.357 -1.757,-3.84c0.262,-2.237 0.662,-4.456 1.124,-6.656c0.338,-1.595 0.575,-3.319 1.15,-4.848c0.504,-1.324 1.857,-2.561 3.369,-2.103c1.55,0.471 2.116,2.332 1.708,3.769l0,0Zm-0.796,-6.143c-1.566,-0.425 -2.074,-2.262 -1.678,-3.686c0.383,-1.354 1.012,-2.707 1.583,-3.994c2.44,-5.535 5.281,-10.904 8.771,-15.852c7.672,-10.871 17.481,-20.15 29.03,-26.806c3.711,-2.137 7.543,-4.073 11.529,-5.643c1.337,-0.525 2.744,-1.308 4.215,-0.838c1.449,0.463 2.17,1.97 1.512,3.366c-0.85,1.795 -3.349,2.245 -5.019,2.944c-8.068,3.395 -15.598,8.126 -22.241,13.816c-9.834,8.429 -17.456,18.975 -22.729,30.77c-0.554,1.25 -1.037,2.533 -1.536,3.807c-0.517,1.337 -1.925,2.524 -3.437,2.116l0,0Zm6.685,33.099c-3.469,0 -3.428,-5.348 0,-5.348c3.428,0 3.478,5.348 0,5.348l0,0Zm4.386,-21.125c-0.471,2.191 -0.862,4.403 -1.137,6.627c-0.196,1.558 -0.025,3.486 -0.658,4.948c-0.546,1.254 -1.891,2.207 -3.274,1.674c-1.616,-0.62 -1.824,-2.378 -1.72,-3.869c0.154,-2.145 0.429,-4.282 0.783,-6.406c0.254,-1.533 0.387,-3.269 0.97,-4.723c0.5,-1.237 1.762,-2.324 3.166,-1.945c1.553,0.417 2.207,2.249 1.87,3.694l0,0Zm6.964,15.723c-3.532,0.029 -3.266,-5.635 0.237,-5.343c3.349,0.283 3.166,5.318 -0.237,5.343Zm6.393,-21.112c-0.75,2.041 -1.374,4.123 -1.895,6.235c-0.412,1.683 -0.475,3.682 -1.195,5.269c-0.596,1.32 -2.104,2.336 -3.541,1.628c-1.549,-0.766 -1.607,-2.553 -1.345,-4.019c0.375,-2.095 0.846,-4.169 1.42,-6.214c0.471,-1.666 0.913,-3.457 1.654,-5.027c0.612,-1.287 2.107,-2.391 3.561,-1.775c1.478,0.625 1.874,2.512 1.341,3.903l0,0Zm-0.3,-6.214c-3.357,-1.57 0.225,-6.273 1.366,-8.114c1.766,-2.836 3.724,-5.552 5.89,-8.092c4.423,-5.194 9.583,-9.713 15.327,-13.391c1.395,-0.891 2.815,-1.757 4.277,-2.528c0.929,-0.491 1.929,-0.833 2.978,-0.537c1.212,0.346 1.924,1.458 1.716,2.699c-0.237,1.403 -1.333,2.099 -2.482,2.732c-5.798,3.19 -11.104,7.28 -15.623,12.12c-2.612,2.799 -4.969,5.814 -7.039,9.034c-0.925,1.437 -1.753,2.924 -2.591,4.411c-0.728,1.291 -2.307,2.374 -3.819,1.666l0,0Zm9.334,15.668c-0.837,2.72 -1.004,5.69 -1.245,8.505c-0.121,1.446 -0.988,2.941 -2.562,3.132c-1.658,0.204 -2.674,-1.391 -2.778,-2.861c-0.112,-1.666 0.2,-3.382 0.45,-5.023c0.229,-1.524 0.425,-3.053 0.816,-4.544c0.358,-1.37 1.15,-2.928 2.766,-3.024c1.957,-0.112 2.978,2.162 2.553,3.815l0,0Zm-0.729,-6.018c-1.991,-0.437 -2.166,-2.878 -1.479,-4.419c1.741,-3.919 3.891,-7.676 6.431,-11.129c4.877,-6.614 11.271,-12.337 18.547,-16.206c2.253,-1.199 4.619,-2.253 7.01,-3.128c2.032,-0.745 6.472,-2.824 7.272,0.567c0.574,2.445 -2.012,3.19 -3.724,3.827c-1.108,0.413 -2.212,0.829 -3.319,1.241c-3.112,1.163 -6.102,2.92 -8.88,4.736c-8.009,5.24 -13.94,12.924 -18.064,21.446c-0.745,1.545 -1.682,3.531 -3.794,3.065l0,0Zm27.152,-45.781c3.702,-1.354 7.634,-2.516 11.549,-3.062c1.433,-0.2 3.203,0.329 3.582,1.92c0.362,1.525 -0.879,2.791 -2.224,3.232c-1.924,0.633 -4.057,0.808 -6.019,1.337c-1.811,0.488 -3.548,1.221 -5.352,1.7c-1.42,0.374 -3.236,-0.121 -3.694,-1.679c-0.45,-1.524 0.825,-2.936 2.158,-3.448l0,0Zm19.871,23.361c-1.341,1.32 -3.511,1.116 -5.219,1.528c-1.225,0.3 -2.491,0.571 -3.686,0.983c-4.881,1.687 -9.384,4.115 -13.365,7.418c-5.386,4.469 -9.405,10.458 -11.775,17.014c-1.441,3.986 -2.032,7.993 -2.257,12.195c-0.075,1.391 0.212,3.061 -0.263,4.398c-0.47,1.321 -1.832,2.35 -3.257,1.816c-2.686,-0.999 -1.899,-4.981 -1.786,-7.201c0.233,-4.715 1.107,-9.367 2.773,-13.803c2.416,-6.426 6.435,-12.465 11.533,-17.08c2.545,-2.303 5.248,-4.257 8.189,-6.039c3.123,-1.9 6.714,-3.366 10.262,-4.286c1.137,-0.292 2.27,-0.646 3.428,-0.829c1.578,-0.254 3.578,-0.883 5.006,0.037c1.383,0.896 1.604,2.674 0.417,3.849l0,0Zm0.07,-10.562c-1.199,0.095 -2.415,0.254 -3.615,0.316c-1.041,0.054 -2.128,-0.358 -2.761,-1.216c-1.566,-2.149 0.866,-3.89 2.803,-4.194c1.808,-0.283 4.781,-0.792 6.118,0.866c1.496,1.862 -0.566,4.128 -2.545,4.228l0,0Zm0.263,-16.785c3.465,-0.117 3.653,5.26 0.221,5.343c-3.436,0.109 -3.678,-5.227 -0.221,-5.343Zm5.51,27.972c-3.469,0 -3.428,-5.348 0,-5.348c3.428,0 3.478,5.348 0,5.348l0,0Zm4.494,-34.041c-4.111,0.009 -8.246,-0.104 -12.345,0.204c-8.288,0.621 -16.427,2.545 -24.061,5.852c-15.294,6.622 -28.401,18.684 -36.006,33.549c-1.066,2.083 -2.099,4.19 -2.949,6.373c-0.375,0.966 -0.779,1.92 -1.112,2.898c-0.233,0.683 -0.462,1.341 -0.975,1.875c-1.291,1.345 -3.532,1.287 -4.277,-0.592c-0.721,-1.824 0.546,-4.011 1.208,-5.685c0.279,-0.704 0.545,-1.412 0.858,-2.099c0.724,-1.604 1.457,-3.191 2.253,-4.757c7.589,-14.906 20.1,-27.218 35.052,-34.69c7.377,-3.686 15.344,-6.181 23.499,-7.405c4.228,-0.633 8.48,-0.85 12.749,-0.871c2.012,-0.008 4.036,-0.066 6.048,0c1.516,0.05 3.265,0.946 3.265,2.674c0,1.658 -1.707,2.674 -3.207,2.674l0,0Zm12.787,146.641c-3.761,0 -3.761,-5.835 0,-5.835c3.765,0 3.765,5.835 0,5.835Zm-0.079,35.015c-3.766,0 -3.766,-5.835 0,-5.835c3.761,0 3.761,5.835 0,5.835Zm77.772,11.745c0.608,1.196 1.62,2.383 3.003,2.657c1.204,0.242 2.228,-0.416 2.62,-1.561c0.466,-1.354 0.037,-2.745 -0.537,-3.986c-0.738,-1.591 -1.562,-3.137 -2.379,-4.686c-0.878,-1.674 -1.736,-3.365 -2.69,-4.998c-0.721,-1.233 -1.62,-2.441 -3.057,-2.87c-1.32,-0.391 -2.549,0.259 -2.941,1.591c-0.425,1.458 0.171,2.883 0.896,4.124c1.853,3.157 3.428,6.468 5.085,9.729l0,0Zm-30.991,9.834c-2.17,1.153 -1.396,3.582 -0.575,5.314c0.687,1.454 1.299,2.974 2.07,4.386c0.683,1.249 2.12,2.145 3.565,1.724c1.47,-0.429 2.116,-2.028 1.899,-3.444c-0.233,-1.529 -1.299,-3.128 -1.945,-4.498c-0.895,-1.891 -2.378,-4.882 -5.014,-3.482l0,0Zm19.642,-12.791c3.369,-1.808 0.195,-7.497 -3.12,-5.735c-3.415,1.812 -0.237,7.547 3.12,5.735Zm27.863,30.284c-1.012,-3.753 -2.153,-7.489 -3.473,-11.137c-0.433,-1.192 -0.871,-2.375 -1.3,-3.562c-0.699,-1.92 -1.262,-4.227 -2.54,-5.856c-1.075,-1.366 -3.245,-2.365 -4.469,-0.591c-1.312,1.903 -0.104,4.153 0.62,6.002c0.521,1.333 0.996,2.682 1.483,4.027c0.466,1.3 0.82,2.728 0.362,4.09c-0.92,2.708 -3.619,1.641 -4.889,-0.154c-1.312,-1.849 -1.775,-4.348 -2.637,-6.435c-0.858,-2.078 -1.728,-4.148 -2.611,-6.218c-0.771,-1.812 -1.662,-3.586 -2.512,-5.364c-0.645,-1.35 -1.72,-2.666 -3.336,-2.758c-2.374,-0.133 -2.87,2.591 -2.299,4.378c0.766,2.399 2.207,4.644 3.19,6.968c2.266,5.352 4.34,10.762 6.073,16.314c0.666,2.137 2.003,5.015 0.396,7.076c-1.366,1.754 -3.503,0.504 -4.432,-1.004c-0.645,-1.053 -0.912,-2.319 -1.274,-3.49c-0.45,-1.449 -0.892,-2.899 -1.379,-4.34c-0.437,-1.299 -0.92,-2.586 -1.395,-3.877c-0.617,-1.683 -1.25,-3.349 -1.941,-5.002c-0.891,-2.133 -2.295,-6.939 -5.556,-5.423c-2.378,1.108 -1.366,4.011 -0.617,5.789c1.137,2.707 2.187,5.431 3.199,8.184c1.033,2.808 1.978,5.681 2.791,8.559c0.487,1.733 0.391,4.723 -1.937,5.044c-2.624,0.358 -3.482,-2.795 -4.057,-4.66c-0.849,-2.758 -1.724,-5.507 -2.736,-8.214c-0.612,-1.628 -1.67,-3.444 -3.736,-3.078c-2.12,0.379 -2.562,2.782 -1.962,4.515c0.437,1.258 1.12,2.528 0.916,3.899c-0.324,2.165 -2.519,3.211 -4.315,1.857c-2.028,-1.537 -2.269,-4.802 -3.319,-6.98c-0.891,-1.845 -3.278,-2.753 -4.844,-1.079c-1.783,1.912 -0.008,4.631 0.712,6.618c0.754,2.078 1.462,4.153 2.129,6.256c0.629,1.974 1.853,4.835 -0.392,6.297c-2.037,1.329 -3.932,-0.541 -4.494,-2.403c-0.791,-2.624 -1.645,-5.231 -2.599,-7.801c-0.604,-1.628 -1.216,-3.236 -1.887,-4.835c-0.554,-1.321 -0.978,-2.733 -2.582,-3.066c-1.999,-0.412 -3.898,1.37 -3.532,3.395c0.2,1.116 0.862,2.228 1.296,3.261c0.903,2.145 1.715,4.369 2.411,6.585c2.786,8.883 4.694,17.884 5.394,27.189c0.112,1.524 0.2,3.048 0.254,4.577c0.029,0.691 0.046,1.387 0.062,2.082c0.004,0.284 -0.129,1.554 0.029,1.666c0.213,0.146 1.025,0 1.271,0l62.912,0c-0.071,-10.695 -1.137,-21.254 -2.887,-31.791c-0.795,-5.231 -2.182,-10.404 -3.561,-15.51l0,0Zm-41.558,14.007c-1.512,0.383 -3.319,-0.429 -3.548,-2.091c-0.204,-1.508 0.958,-2.857 2.403,-3.149c3.548,-0.716 4.598,4.365 1.145,5.24Zm33.928,-8.647c-3.753,0.95 -5.414,-5.644 -1.683,-6.56c3.703,-0.912 5.365,5.631 1.683,6.56l0,0Zm-63.17,-22.312c-1.712,-2.628 -6.585,0.596 -4.911,3.153c1.671,2.553 6.639,-0.521 4.911,-3.153Zm12.591,10.658c1.357,2.545 5.435,2.224 5.585,-0.953c0.062,-1.358 -0.866,-2.778 -1.458,-3.936c-0.85,-1.675 -1.716,-3.353 -2.632,-4.99c-1.154,-2.062 -3.34,-7.13 -6.493,-4.615c-1.233,0.983 -1.317,2.683 -0.621,4.003c0.954,1.807 2.095,3.507 3.015,5.335c0.904,1.699 1.7,3.461 2.604,5.156l0,0Zm-6.793,-0.604c-1.092,-2.057 -2.316,-6.255 -5.398,-5.497c-1.296,0.316 -2.291,1.545 -2.283,2.886c0.009,0.741 0.392,1.329 0.729,1.958c0.692,1.278 1.275,3.136 2.408,4.102c2.244,1.916 6.08,-0.708 4.544,-3.449l0,0Zm28.992,-11.507c1.345,-0.03 2.274,-1.129 2.449,-2.404c0.233,-1.716 -1,-3.411 -1.77,-4.868c-0.866,-1.637 -1.683,-3.678 -3.765,-4.011c-1.254,-0.204 -2.395,0.508 -2.803,1.712c-0.417,1.237 0.016,2.399 0.599,3.494c0.692,1.308 1.383,2.616 2.075,3.923c0.633,1.146 1.836,2.183 3.215,2.154l0,0Zm-15.144,-5.602c-3.253,1.953 -0.316,6.743 2.903,4.789c3.186,-1.94 0.258,-6.688 -2.903,-4.789Z" style="fill:none;stroke:#ff7800;stroke-width:2.45px;"/><path d="M1056.9,304.9c-3.761,0 -3.761,5.835 0,5.835c3.765,0 3.765,-5.835 0,-5.835Zm-11.121,-23.344c-2.645,0 -5.294,-0.03 -7.943,0c-1.491,0.016 -3.136,0.587 -3.648,2.145c-0.725,2.203 1.553,3.636 3.449,3.69c2.203,0.066 4.414,0 6.614,0c2.361,0 7.788,0.779 7.788,-2.916c0,-3.248 -4.023,-2.919 -6.26,-2.919Zm8.205,2.915c0,3.765 5.835,3.765 5.835,0c0,-3.761 -5.835,-3.761 -5.835,0Zm2.332,8.755l-12.411,0c-1.15,0 -2.333,-0.1 -3.386,0.471c-2.508,1.357 -1.754,4.523 0.82,5.222c0.917,0.25 2.012,0.142 2.966,0.142c3.328,0 6.66,0 9.991,0c1.237,0 2.645,0.162 3.782,-0.4c3.203,-1.57 1.354,-5.435 -1.761,-5.435l-0.001,0Zm-19.371,46.685c-4.735,0 -9.475,0 -14.215,0c-2.149,0 -6.468,-0.187 -5.727,-3.411c0.633,-2.749 4.182,-2.424 6.344,-2.424l20.933,0c2.27,0 6.393,0.625 7.055,-2.395c0.454,-2.082 -1.657,-3.378 -3.461,-3.44c-0.591,-0.021 -1.187,0 -1.778,0l-19.022,0c-5.169,0 -10.333,0.037 -15.502,0c-1.316,-0.008 -2.695,-0.283 -3.615,-1.316c-1.674,-1.874 0.187,-3.944 2.157,-4.39c1.466,-0.333 3.17,-0.129 4.657,-0.129l21.695,0c2.287,0 6.339,0.645 7.131,-2.27c0.579,-2.128 -1.571,-3.503 -3.42,-3.565c-0.404,-0.017 -0.812,0 -1.22,0l-23.528,0c-1.375,0 -2.761,0.037 -4.136,0c-1.787,-0.055 -4.456,-1.158 -3.936,-3.416c0.4,-1.741 2.433,-2.386 3.99,-2.42c4.94,-0.116 9.896,0 14.836,0c1.562,0 3.128,0.017 4.69,0c1.899,-0.02 4.265,-1.307 3.648,-3.569c-0.483,-1.77 -2.336,-2.266 -3.948,-2.266c-2.428,0 -4.852,0.017 -7.281,0c-1.532,-0.012 -3.377,-0.416 -4.098,-1.953c-1.037,-2.207 1.533,-3.744 3.403,-3.873c2.274,-0.155 4.598,-0.013 6.872,-0.013c2.232,0 5.989,0.646 7.214,-1.783c1.129,-2.232 -1.2,-3.973 -3.22,-4.052c-0.854,-0.029 -1.716,0 -2.565,0l-12.933,0c-2.195,0 -4.535,0.237 -6.722,-0.042c-1.878,-0.241 -4.211,-1.974 -2.953,-4.061c1.016,-1.686 3.086,-1.732 4.823,-1.732l13.982,0c0.933,0 1.845,0.029 2.716,-0.4c1.953,-0.962 2.332,-3.44 0.487,-4.748c-1.125,-0.792 -2.449,-0.687 -3.744,-0.687l-48.243,0c-3.166,0 -6.327,0.012 -9.322,-1.187c-4.931,-1.966 -8.763,-6.048 -10.458,-11.054c-0.983,-2.895 -0.841,-6.01 -0.841,-9.026c0,-2.166 -0.004,-4.331 0,-6.497c0,-7.843 3.382,-15.182 9.746,-19.938c3.769,-2.82 8.271,-4.494 12.982,-4.706c1.97,-0.092 3.932,-0.113 5.906,-0.113l30.725,0c0.25,0 0.729,0.088 0.846,-0.079c0.195,-0.262 0,-1.437 0,-1.749l0,-61.521c0,-0.113 0.087,-0.75 0,-0.842c-0.13,-0.137 -1.204,0 -1.379,0l-35.819,0c-2.882,0 -5.86,0.175 -8.701,-0.329c-4.997,-0.883 -9.333,-4.202 -11.928,-8.513c-1.962,-3.253 -2.382,-6.83 -2.382,-10.541c0,-2.499 0,-4.998 0,-7.501c0,-3.066 0.095,-6.094 1.237,-9.005c1.824,-4.657 6.01,-8.593 10.737,-10.2c3.065,-1.041 6.327,-0.916 9.521,-0.916l75.978,0c1.016,0 2.145,0.137 3.153,0c0.075,-0.013 0.37,0.049 0.424,0c0.13,-0.125 0,-1.004 0,-1.175l0,-61.825c0,-0.187 0.13,-1.004 0,-1.15c-0.062,-0.07 -0.137,0 -0.254,-0.041c-0.745,-0.258 -2.049,0 -2.824,0l-68.976,0c-4.219,0 -8.459,-0.125 -12.674,0.046c-10.462,0.42 -20.646,2.224 -30.333,6.322c-18.443,7.801 -33.77,22.437 -42.362,40.529c-4.386,9.238 -6.964,19.384 -7.585,29.584c-0.254,4.19 -0.233,8.368 -0.233,12.562c0,4.002 0.117,7.976 0.358,11.974c0.167,2.716 0.696,5.448 1.15,8.13c0.87,5.148 2.503,10.304 4.464,15.136c2.083,5.119 4.707,10.012 7.781,14.602c0.733,1.092 1.487,2.166 2.27,3.224c0.416,0.562 0.837,1.12 1.27,1.67c0.212,0.271 0.429,0.537 0.645,0.804c0.134,0.162 0.263,0.321 0.396,0.479c0.346,0.212 0.346,0.433 0.004,0.658c-0.216,0.583 -0.895,1.191 -1.27,1.699c-0.5,0.671 -1.004,1.341 -1.495,2.02c-0.546,0.758 -1.037,1.554 -1.525,2.349c-4.902,7.972 -8.792,16.352 -11.137,25.448c-3.103,12.004 -3.365,24.682 -2.753,37.031c0.383,7.76 1.762,15.515 4.403,22.837c1.711,4.74 3.677,9.413 6.251,13.761c2.124,3.59 4.428,6.956 6.956,10.263c6.022,7.88 14.073,14.706 22.628,19.683c7.901,4.594 16.793,8.268 25.848,9.78c4.573,0.766 9.096,1.266 13.728,1.445c1.891,0.075 3.782,0.062 5.677,0.062l50.654,0c2.312,0 4.623,0.029 6.935,0c1.395,-0.016 2.882,-0.533 3.494,-1.899c0.967,-2.166 -1.291,-3.936 -3.282,-3.936l0,0Zm-26.647,-40.85c3.761,0 3.761,5.835 0,5.835c-3.761,0 -3.765,-5.835 0,-5.835Zm-32.912,-199.299c-3.469,-0.016 -3.428,-5.352 0,-5.347c3.424,0.004 3.474,5.347 0,5.347Zm-5.223,-11.187c-2.116,0.092 -5.464,1.225 -6.647,-1.324c-1.033,-2.228 1.453,-3.474 3.24,-3.744c1.72,-0.263 4.103,-0.729 5.565,0.474c2.082,1.716 0.058,4.482 -2.158,4.594Zm0.171,8.659c0.116,1.566 -1.354,2.749 -2.762,3.02c-1.782,0.341 -3.59,0.65 -5.314,1.249c-0.945,0.329 -1.928,0.65 -2.853,1.042c-0.7,0.295 -1.362,0.754 -2.103,0.937c-1.371,0.337 -3.116,-0.175 -3.549,-1.654c-0.525,-1.803 1.012,-2.99 2.428,-3.682c2.695,-1.307 5.648,-2.199 8.572,-2.848c1.92,-0.425 5.377,-0.892 5.581,1.936l0,0Zm5.052,-36.86c3.469,0 3.428,5.348 0,5.348c-3.428,-0.004 -3.478,-5.356 0,-5.348l0,0Zm-2.191,14.02c-0.029,3.236 -4.065,2.761 -6.181,3.011c-1.745,0.208 -3.519,0.504 -5.252,0.812c-3.986,0.708 -8.171,1.983 -11.807,3.728c-5.357,2.574 -10.554,5.485 -14.973,9.517c-2.649,2.411 -5.153,4.927 -7.397,7.722c-1.537,1.92 -5.157,1.849 -5.007,-1.212c0.117,-2.37 2.703,-4.361 4.199,-6.002c5.96,-6.552 13.598,-11.862 21.753,-15.261c3.64,-1.516 7.389,-2.586 11.208,-3.527c1.754,-0.429 3.582,-0.621 5.369,-0.892c0.841,-0.129 1.666,-0.245 2.52,-0.295c1.133,-0.063 2.486,-0.288 3.598,0.058c1.041,0.329 1.983,1.183 1.97,2.341l0,0Zm-18.134,-11.791c3.786,-0.967 7.826,-1.775 11.737,-1.937c1.441,-0.063 3.157,0.583 3.407,2.199c0.233,1.541 -1.108,2.736 -2.491,3.057c-1.982,0.458 -4.132,0.45 -6.147,0.783c-1.854,0.304 -3.67,0.879 -5.519,1.154c-1.449,0.212 -3.211,-0.454 -3.494,-2.058c-0.275,-1.553 1.116,-2.849 2.507,-3.198Zm-54.162,79.767c-3.469,0 -3.427,-5.352 0,-5.352c3.424,0 3.474,5.352 0,5.352Zm4.27,-21.799c-0.446,2.141 -0.821,4.29 -1.087,6.46c-0.213,1.728 -0.038,3.727 -0.55,5.397c-0.425,1.392 -1.858,2.566 -3.357,2.016c-1.583,-0.579 -1.887,-2.361 -1.795,-3.827c0.141,-2.112 0.37,-4.215 0.679,-6.31c0.254,-1.704 0.437,-3.528 0.966,-5.177c0.437,-1.362 1.737,-2.662 3.274,-2.245c1.545,0.416 2.203,2.245 1.87,3.686l0,0Zm2.482,-8.676c-0.575,1.808 -2.82,3.728 -4.586,2.003c-1.978,-1.932 0.154,-5.51 0.992,-7.505c1.395,-3.315 3.04,-6.501 4.864,-9.6c6.094,-10.354 14.982,-19.047 25.144,-25.369c2.645,-1.645 5.419,-3.09 8.251,-4.369c2.037,-0.921 5.673,-3.174 7.501,-0.937c0.654,0.799 0.629,1.911 0.121,2.782c-0.629,1.07 -1.728,1.474 -2.824,1.912c-2.645,1.045 -5.252,2.282 -7.722,3.694c-4.24,2.424 -8.263,5.19 -11.945,8.405c-8.93,7.818 -15.744,17.839 -19.796,28.984l0,0Zm4.598,23.449c-3.499,0.029 -3.169,-5.648 0.267,-5.344c3.411,0.304 3.169,5.315 -0.267,5.344Zm4.402,-13.836c-0.279,1.091 -0.499,2.161 -0.72,3.261c-0.487,2.482 -3.819,3.944 -5.027,1.112c-0.596,-1.399 -0.117,-3.032 0.237,-4.431c0.279,-1.088 0.5,-2.22 1.35,-3.024c2.19,-2.079 4.798,0.616 4.16,3.082Zm-2.519,-8.13c-0.388,-1.958 1.028,-4.003 1.861,-5.715c0.913,-1.874 1.908,-5.035 4.165,-5.706c1.104,-0.329 2.216,0.125 2.766,1.142c0.629,1.174 0.296,2.432 -0.35,3.502c-1.249,2.075 -2.532,4.461 -3.303,6.739c-0.899,2.458 -4.56,3.003 -5.139,0.038l0,0Zm12.374,17.33c-0.108,2.095 -0.242,4.19 -0.238,6.289c0,1.637 0.334,3.678 -0.878,4.99c-1.225,1.329 -3.153,0.933 -4.011,-0.579c-0.538,-0.949 -0.458,-2.007 -0.458,-3.053c0,-0.999 -0.017,-2.003 0.004,-3.003c0.033,-1.553 0.121,-3.119 0.229,-4.673c0.1,-1.378 0.7,-2.907 2.157,-3.344c2.012,-0.604 3.441,1.587 3.195,3.373l0,0Zm3.398,-13.398c-0.354,0.966 -0.708,1.932 -1.062,2.894c-0.554,1.5 -0.737,3.416 -2.249,4.278c-2.299,1.312 -4.056,-1.017 -3.673,-3.207c0.27,-1.575 0.945,-3.137 1.52,-4.615c3.623,-9.326 9.833,-17.335 17.814,-23.32c3.919,-2.936 8.255,-5.273 12.853,-6.964c1.562,-0.579 3.261,-1.424 4.827,-0.312c0.983,0.704 1.241,1.97 0.704,3.049c-0.462,0.916 -1.358,1.403 -2.278,1.761c-2.512,0.983 -5.019,1.912 -7.406,3.191c-9.429,5.048 -16.822,13.474 -21.05,23.245l0,0Zm7.502,23.094c-0.471,1.325 -1.829,2.349 -3.257,1.821c-2.245,-0.838 -1.883,-3.624 -1.879,-5.527c0,-1.421 0.075,-2.828 0.146,-4.249c0.346,-6.643 2.603,-13.203 6.147,-18.813c2.012,-3.186 4.411,-6.014 7.177,-8.571c1.033,-0.954 2.115,-2.12 3.586,-2.333c1.42,-0.208 2.69,0.608 2.844,2.078c0.209,1.937 -1.445,2.962 -2.703,4.099c-1.537,1.391 -2.99,2.878 -4.252,4.523c-2.574,3.365 -4.644,7.118 -5.931,11.162c-1.083,3.703 -1.629,7.439 -1.67,11.3c-0.013,1.416 0.275,3.148 -0.208,4.51l0,0Zm11.678,-7.467c-0.154,3.377 -5.664,2.978 -5.323,-0.529c0.342,-3.491 5.819,-2.828 5.323,0.529l0,0Zm3.794,-10.754c-0.703,1.153 -1.312,2.324 -1.911,3.54c-0.579,1.174 -1.6,2.141 -3.003,2.087c-1.266,-0.05 -2.087,-1.075 -2.212,-2.283c-0.175,-1.653 0.996,-3.548 1.829,-4.923c1.524,-2.511 3.252,-4.815 5.41,-6.826c3.828,-3.57 8.459,-5.948 13.511,-7.227c1.908,-0.483 5.14,-1.337 6.402,0.808c0.67,1.146 0.083,2.554 -0.917,3.291c-1.103,0.82 -2.578,0.72 -3.865,1.004c-2.54,0.562 -4.96,1.52 -7.205,2.836c-3.066,1.803 -6.302,4.523 -8.039,7.693l0,0Zm55.341,217.728c-3.766,0 -3.766,-5.835 0,-5.835c3.761,0 3.761,5.835 0,5.835Zm46.681,-11.67c-3.761,0 -3.761,5.835 0,5.835c3.765,0 3.765,-5.835 0,-5.835Zm-14.961,-17.506c2.174,0 4.357,0.067 6.535,0c1.462,-0.045 3.057,-0.733 3.474,-2.269c0.512,-1.879 -1.225,-3.341 -2.937,-3.536c-1.887,-0.221 -3.886,-0.03 -5.777,-0.03c-2.274,0 -6.839,-0.533 -6.839,2.916c0,2.961 3.424,2.92 5.544,2.92l0,-0.001Zm14.378,5.836c-1.671,0 -3.345,0 -5.015,0c-2.02,0 -5.027,0.079 -5.173,2.786c-0.146,2.67 2.791,3.049 4.781,3.049c1.796,0 3.603,0.062 5.398,0c1.558,-0.054 3.307,-0.933 3.499,-2.653c0.208,-1.933 -1.766,-3.182 -3.49,-3.182l0,0Zm0,23.34c-2.029,0 -4.053,0 -6.081,0c-2.166,0 -5.577,-0.579 -6.856,1.67c-1.058,1.862 0.542,3.736 2.387,4.09c0.749,0.146 1.587,0.075 2.353,0.075c2.536,0 5.069,0 7.605,0c1.445,0 2.974,-0.295 3.757,-1.67c1.245,-2.191 -1.07,-4.165 -3.165,-4.165Z" style="fill:none;stroke:#fff800;stroke-width:2.45px;"/><path d="M1218.79,-29.906c4.249,0 3.988,-5.069 3.988,-8.05c0,-3.288 0.068,-6.582 0,-9.87c-0.046,-2.037 -0.945,-4.284 -3.101,-4.876c-2.89,-0.785 -4.784,2.139 -4.87,4.659c-0.097,2.765 0,5.547 0,8.307c0,3.163 -0.865,9.83 3.983,9.83Zm-47.823,9.075c4.039,0 3.982,-4.677 3.982,-7.567c0,-2.97 0.097,-5.957 0,-8.926c-0.063,-1.997 -1.001,-4.176 -3.101,-4.751c-2.56,-0.694 -4.557,1.673 -4.83,4.017c-0.296,2.571 -0.04,5.302 -0.04,7.885c0,3.112 -0.722,9.342 3.989,9.342Zm31.882,-24.02c5.137,0 5.137,-7.971 0,-7.971c-5.138,0 -5.143,7.971 0,7.971Zm-63.77,0c5.143,0 5.143,-7.971 0,-7.971c-5.137,0 -5.137,7.971 0,7.971Zm15.941,20.589c4.853,0 3.988,-6.747 3.988,-9.967c0,-4.353 0,-8.705 0,-13.057c0,-2.111 -0.569,-4.455 -2.765,-5.302c-3.396,-1.314 -5.194,2.446 -5.206,5.194c-0.017,3.641 0,7.276 0,10.917c0,3.323 -1.365,12.215 3.983,12.215l0,0Zm-15.941,6.617c4.437,0 3.988,-5.49 3.988,-8.546c0,-3.618 0.04,-7.236 0,-10.854c-0.023,-2.032 -0.802,-4.279 -2.93,-4.978c-3.01,-0.996 -4.967,2.116 -5.041,4.71c-0.091,3.004 0,6.025 0,9.035c0,3.225 -1.063,10.633 3.983,10.633l0,0Zm47.829,-16.471c3.646,0 3.982,-4.022 3.982,-6.753c0,-2.383 0.085,-4.784 0,-7.162c-0.068,-2.02 -1.121,-4.244 -3.271,-4.717c-2.077,-0.449 -3.858,1.161 -4.449,3.044c-0.689,2.202 -0.251,5.155 -0.251,7.419c0,2.958 -0.318,8.169 3.989,8.169l0,0Zm-15.941,-10.735c5.137,0 5.137,-7.971 0,-7.971c-5.143,0 -5.143,7.971 0,7.971Zm103.047,217.4c16.988,-6.879 33.174,-15.702 48.187,-26.21c14.986,-10.485 28.787,-22.649 41.076,-36.195c12.3,-13.551 23.075,-28.485 32.053,-44.432c9.353,-16.624 16.737,-34.357 21.926,-52.71c5.393,-19.064 8.448,-38.794 9.051,-58.598c0.08,-2.464 0.114,-4.921 0.114,-7.379l-84.694,0c-0.746,0 -1.576,-0.103 -2.316,0c-1.155,0.153 -0.666,0.358 -0.683,1.911c-0.096,7.345 -0.711,14.69 -1.849,21.955c-4.397,28.156 -16.709,54.786 -35.159,76.491c-18.051,21.237 -41.741,37.588 -68.093,46.708c-3.573,1.234 -7.191,2.338 -10.849,3.311l0,-117.129c0,-2.554 -0.16,-5.877 -3.272,-6.559c-6.161,-1.343 -4.699,9.922 -4.699,13.221c0,3.226 0,6.446 0,9.666c0,1.952 0.268,4.267 -0.421,6.122c-0.711,1.911 -2.577,3.658 -4.727,2.776c-2.009,-0.825 -2.771,-3.214 -2.822,-5.206c-0.052,-1.837 0,-3.692 0,-5.529c0,-9.945 0,-19.884 0,-29.823c0,-2.771 -0.939,-6.998 -4.7,-6.173c-2.981,0.649 -3.271,3.795 -3.271,6.287l0,45.297c0,1.86 0.222,3.988 -0.495,5.74c-0.773,1.9 -2.719,3.493 -4.813,2.515c-1.9,-0.893 -2.611,-3.197 -2.668,-5.132c-0.114,-4.17 0,-8.363 0,-12.533l0,-21.886c0,-2.424 0.546,-5.854 -0.836,-7.982c-1.218,-1.883 -3.658,-2.503 -5.439,-0.99c-1.195,1.007 -1.65,2.509 -1.696,4.017c-0.039,1.484 0,2.975 0,4.466l0,31.409c0,2.657 0.433,5.872 -1.661,7.908c-1.672,1.633 -3.988,1.121 -5.251,-0.722c-0.796,-1.172 -1.041,-2.549 -1.058,-3.937c-0.051,-5.245 0,-10.497 0,-15.736c0,-2.805 0,-5.61 0,-8.415c0,-1.809 0.222,-3.828 -0.728,-5.438c-1.144,-1.923 -3.55,-2.691 -5.405,-1.263c-1.496,1.155 -1.832,2.93 -1.838,4.705c-0.011,2.582 0,5.165 0,7.748c0,2.816 0.245,7.265 -3.305,8.067c-3.772,0.859 -4.665,-3.897 -4.665,-6.605c0,-3.009 0,-6.019 0,-9.034c0,-2.327 0.449,-5.348 -1.058,-7.305c-1.383,-1.798 -3.863,-2.071 -5.49,-0.427c-1.098,1.11 -1.411,2.583 -1.423,4.085c-0.022,2.85 0,5.695 0,8.545c0,4.159 0,8.324 0,12.482c0,2.549 0.023,5.098 0,7.647c-0.017,1.598 -0.329,3.208 -1.41,4.448c-1.508,1.736 -3.846,1.639 -5.274,-0.136c-1.565,-1.957 -1.286,-4.523 -1.286,-6.873l0,-17.266c0,-2.481 -0.074,-5.547 -2.93,-6.492c-2.259,-0.745 -4.284,1.053 -4.847,3.147c-0.29,1.086 -0.194,2.264 -0.194,3.379l0,350.088c0,0.722 -0.295,2.201 0,2.873c0.109,0.239 -0.056,0.153 0.109,0.279c0.233,0.182 1.348,0 1.638,0l84.41,0c0.29,0 1.348,0.153 1.525,-0.052c0.136,-0.159 0,-1.052 0,-1.251l0,-156.401c0,-0.216 -0.114,-0.813 0,-1.007c0.136,-0.233 1.359,-0.256 1.678,-0.313c1.582,-0.284 3.158,-0.563 4.739,-0.87c3.027,-0.586 6.042,-1.229 9.046,-1.929c12.197,-2.85 24.167,-6.65 35.773,-11.355l0,0Zm-111.018,-153.744c-5.143,0 -5.143,-7.971 0,-7.971c5.137,0 5.137,7.971 0,7.971Zm47.823,0.108c-5.137,0 -5.137,-7.97 0,-7.97c5.143,0 5.143,7.97 0,7.97Zm38.709,174.987c-2.258,-0.899 -4.5,-1.798 -6.804,-2.571c-1.73,-0.581 -3.47,-1.417 -5.217,-0.387c-1.616,0.95 -2.298,2.975 -1.741,4.739c0.825,2.617 3.846,2.97 6.093,3.766c1.582,0.563 3.106,1.32 4.699,1.849c4.614,1.525 7.669,-5.587 2.97,-7.396l0,0Zm64.64,-18.262c-1.866,-1.331 -4.295,-2.697 -6.514,-1.246c-2.719,1.769 -1.263,5.382 0.802,6.963c1.787,1.366 4.29,2.635 6.446,1.269c2.697,-1.701 1.422,-5.45 -0.734,-6.986l0,0Zm-55.486,9.114c-0.762,1.758 -0.376,4.21 1.525,5.069c1.974,0.899 4.164,-0.546 4.944,-2.367c1.962,-4.591 -4.518,-7.219 -6.469,-2.702Zm165.998,100.578c-6.941,-26.483 -18.234,-51.759 -33.441,-74.522c-6.764,-10.121 -14.319,-19.946 -22.637,-28.855c-1.195,-1.28 -2.406,-2.538 -3.613,-3.801c-1.536,-1.604 -3.049,-3.231 -4.625,-4.79c-1.456,-1.439 -2.93,-2.981 -5.001,-3.447c-3.356,-0.763 -5.131,2.161 -3.897,5.137c0.933,2.247 3.084,3.453 4.535,5.302c1.541,1.952 3.134,6.514 -0.512,7.305c-2.532,0.546 -4.694,-1.382 -6.372,-2.987c-3.237,-3.095 -6.429,-6.229 -9.808,-9.165c-2.367,-2.054 -5.894,-6.338 -9.518,-4.551c-3.334,1.65 -1.229,5.746 0.751,7.504c1.854,1.65 4.232,3.567 3.919,6.366c-0.421,3.846 -5.268,2.776 -7.378,1.166c-1.559,-1.189 -2.919,-2.958 -4.83,-3.59c-3.459,-1.132 -6.361,1.855 -4.745,5.217c0.813,1.696 2.668,2.953 4.073,4.17c1.269,1.098 2.555,2.185 3.812,3.306c1.473,1.314 3.214,2.736 3.92,4.631c1.308,3.487 -1.667,5.945 -4.99,4.659c-1.74,-0.677 -2.93,-2.173 -4.284,-3.385c-1.644,-1.473 -3.328,-2.907 -5.012,-4.329c-3.55,-3.01 -7.179,-5.923 -10.946,-8.648c-1.507,-1.092 -3.009,-2.372 -4.989,-2.27c-1.565,0.086 -2.93,1.047 -3.368,2.577c-1.052,3.681 2.993,5.57 5.353,7.351c3.425,2.583 6.765,5.291 10.002,8.101c2.168,1.883 6.287,5.024 3.778,8.318c-2.816,3.703 -7.203,-0.803 -9.399,-2.697c-6.776,-5.837 -14.081,-11.111 -21.641,-15.878c-1.929,-1.218 -3.892,-2.379 -5.872,-3.511c-1.723,-0.984 -3.663,-2.514 -5.62,-2.924c-3.408,-0.722 -6.156,2.85 -4.29,5.894c0.933,1.513 2.873,2.168 4.346,3.027c1.087,0.637 2.179,1.268 3.277,1.894c2.538,1.445 4.961,3.061 7.419,4.631c1.456,0.933 2.89,1.889 4.267,2.93c2.145,1.616 3.493,4.95 0.813,6.833c-3.464,2.435 -7.487,-1.792 -10.2,-3.573c-3.675,-2.401 -7.442,-4.665 -11.293,-6.776c-1.923,-1.058 -3.869,-2.076 -5.832,-3.049c-1.701,-0.848 -3.368,-1.559 -5.154,-0.444c-1.235,0.774 -1.951,2.213 -1.883,3.67c0.102,2.031 1.468,2.912 3.118,3.737c7.1,3.545 14.103,7.51 20.56,12.135c13.284,9.53 25.249,20.601 35.188,33.617c10.234,13.41 18.302,28.469 23.729,44.444c2.89,8.494 5.029,17.233 6.4,26.096c0.7,4.529 1.206,9.086 1.508,13.66c0.137,2.105 0.233,4.216 0.29,6.332c0.017,0.563 -0.233,3.368 0.137,3.584c0.392,0.228 1.61,0 2.053,0l85.543,0c-0.069,-20.35 -2.64,-40.683 -7.641,-60.402l0,0Zm-127.642,-67.342c-1.206,1.417 -3.476,2.185 -5.086,0.933c-1.684,-1.32 -1.217,-3.886 0.017,-5.325c1.218,-1.417 3.431,-2.094 5.018,-0.853c1.656,1.291 1.291,3.788 0.051,5.245Zm46.196,-22.222c-3.732,3.607 -9.797,-2.56 -5.974,-6.178c3.721,-3.516 9.695,2.583 5.974,6.178l0,0Zm-14.843,-44.25c-2.998,4.187 4.443,9.791 7.629,5.729c3.3,-4.204 -4.517,-10.093 -7.629,-5.729Zm-2.958,19.241c1.581,-0.871 2.27,-2.936 1.598,-4.592c-0.864,-2.156 -3.612,-3.504 -5.41,-4.79c-1.508,-1.075 -2.987,-2.241 -4.921,-2.349c-1.764,-0.097 -3.465,0.836 -3.772,2.679c-0.313,1.838 0.819,3.675 2.185,4.802c1.473,1.217 3.123,2.247 4.676,3.356c1.525,1.161 3.846,1.883 5.644,0.894l0,0Zm16.191,-12.682c-1.655,-0.113 -3.294,0.643 -3.675,2.373c-0.717,3.214 2.571,5.569 4.671,7.39c1.075,0.927 2.162,1.917 3.635,2.099c1.712,0.211 3.601,-0.847 4.017,-2.583c0.739,-3.06 -2.145,-5.296 -4.165,-7.043c-1.308,-1.132 -2.685,-2.116 -4.483,-2.236l0,0Zm-62.45,20.646c-0.21,4.028 5.12,5.69 7.874,7.413c2.361,1.48 6.389,1.65 6.992,-1.888c0.723,-4.216 -5.143,-6.264 -7.942,-7.925c-2.515,-1.508 -6.73,-1.36 -6.924,2.4Zm18.348,-9.535c-2.811,4.591 4.619,8.892 7.174,4.153c2.338,-4.34 -4.586,-8.374 -7.174,-4.153Z" style="fill:none;stroke:#77f847;stroke-width:2.45px;"/><path d="M1479.61,245.245c3.111,0 2.919,-3.711 2.919,-5.889c0,-2.407 0.05,-4.823 0,-7.23c-0.033,-1.491 -0.687,-3.137 -2.27,-3.566c-2.115,-0.579 -3.502,1.562 -3.565,3.412c-0.071,2.02 0,4.056 0,6.08c0,2.312 -0.633,7.193 2.916,7.193l0,0Zm14.59,-19.125c0,-3.765 -5.836,-3.765 -5.836,0c0,3.761 5.836,3.761 5.836,0Zm208.994,8.284c4.823,-7.972 8.376,-17.006 9.88,-26.219c1.066,-6.535 1.416,-13.028 1.416,-19.633c0.004,-7.731 0.004,-15.469 0,-23.199c-0.213,-10.046 -1.371,-19.901 -4.099,-29.597c-2.986,-10.6 -7.547,-20.708 -13.532,-29.954c-11.608,-17.922 -28.38,-32.362 -47.893,-41.054c-9.271,-4.128 -19.255,-7.114 -29.334,-8.405c-5.952,-0.767 -11.903,-1.096 -17.901,-1.096c-6.206,0 -12.412,-0.062 -18.601,0.533c-11.566,1.117 -22.911,3.932 -33.661,8.351c-19.526,8.026 -36.773,21.512 -49.388,38.418c-12.483,16.722 -20.147,36.414 -22.65,57.102c-1.108,9.171 -0.737,18.521 -0.737,27.751l0,33.332c0,0.933 -0.1,1.958 0.183,2.858c0.608,1.949 2.858,3.073 4.511,1.549c1.529,-1.412 1.141,-3.998 1.141,-5.898c0,-2.869 0,-5.739 0,-8.605c0,-1.965 -0.387,-4.631 0.775,-6.334c1.208,-1.771 3.386,-1.562 4.436,0.245c0.604,1.037 0.624,2.179 0.624,3.336c0,2.687 0,5.373 0,8.06c0,0.999 -0.058,1.999 0.4,2.928c0.9,1.832 3.203,2.349 4.578,0.708c1.091,-1.304 0.858,-3.141 0.858,-4.723l0,-23.566c0,-1.583 -0.205,-3.394 0.62,-4.819c1.05,-1.803 3.232,-2.011 4.44,-0.245c0.925,1.353 0.775,2.998 0.775,4.552c0,2.157 0,4.315 0,6.476c0,0.783 -0.021,1.566 0,2.349c0.05,1.816 1.32,3.982 3.44,3.52c2.782,-0.608 2.395,-3.99 2.395,-6.135c0,-2.799 0,-5.598 0,-8.401c0,-1.616 -0.046,-3.244 0,-4.86c0.05,-1.683 1.166,-4.503 3.369,-3.907c1.77,0.483 2.428,3.003 2.466,4.573c0.117,4.636 0,9.288 0,13.923c0,1.621 -0.325,3.749 0.233,5.315c0.687,1.933 2.982,2.911 4.561,1.316c0.929,-0.933 1.041,-2.153 1.041,-3.39c0,-2.483 0,-4.965 0,-7.447c0,-2.166 -0.491,-5.311 1.125,-7.022c1.524,-1.616 3.607,-0.608 4.352,1.22c0.533,1.308 0.354,2.832 0.358,4.215c0.009,1.683 0.704,3.707 2.653,3.915c1.987,0.217 3.124,-1.783 3.182,-3.503c0.154,-4.535 0,-9.1 0,-13.64c0,-1.012 0.03,-2.008 0.488,-2.936c0.887,-1.82 3.036,-2.445 4.41,-0.733c1.104,1.378 0.892,3.065 0.942,4.702c0.05,1.82 1.316,3.986 3.44,3.523c3.145,-0.687 2.395,-5.231 2.395,-7.567c0,-1.779 0.004,-3.557 0.05,-5.336c0.233,-8.713 2.786,-17.347 7.18,-24.86c5.065,-8.655 12.558,-15.852 21.425,-20.538c7.947,-4.202 16.731,-6.114 25.681,-6.114c5.427,0 10.987,-0.304 16.356,0.591c10.817,1.808 20.767,7.451 27.843,15.848c6.735,7.997 10.604,18.089 10.85,28.547c0.087,3.686 0.029,7.376 0.029,11.062c0,4.39 0,8.784 0.004,13.174c0,2.54 0.046,5.044 -0.316,7.563c-0.613,4.249 -3.033,7.293 -6.623,9.53c-4.331,2.699 -9.367,4.248 -14.323,5.302c-4.782,1.016 -9.684,1.587 -14.573,1.645c-2.441,0.025 -4.886,-0.012 -7.327,-0.012l-53.532,0c-3.832,0 -7.689,-0.109 -11.516,0.058c-10.163,0.446 -20.051,2.716 -29.109,7.43c-18.955,9.867 -32.433,28.551 -35.524,49.73c-1.311,9.005 -0.766,18.314 -0.766,27.393l0,47.61c0,0.121 -0.087,0.712 0,0.812c0.088,0.096 0.575,0.025 0.717,0.025l62.283,0c0.187,0 0.983,0.129 1.137,0c0.091,-0.075 0.012,-0.17 0.054,-0.325c0.271,-1.024 0,-2.507 0,-3.565l0,-59.851c0,-0.816 -0.05,-1.661 0.046,-2.469c0.2,-1.662 1.453,-2.579 3.069,-2.654c3.615,-0.174 7.276,0 10.896,0l54.457,0c2.599,0 5.198,0.025 7.797,-0.037c11.141,-0.258 22.337,-1.92 33.074,-4.923c21.375,-5.977 41.296,-18.213 52.97,-37.518l0,0Zm-217.745,-35.194c-3.765,0 -3.765,-5.835 0,-5.835c3.761,0 3.761,5.835 0,5.835Zm35.011,-16.777c-3.761,0 -3.761,-5.835 0,-5.835c3.765,0 3.765,5.835 0,5.835Zm17.505,25.465c3.765,0 3.765,-5.835 0,-5.835c-3.761,0 -3.761,5.835 0,5.835Zm-8.75,-1.816c0,-1.291 0.008,-2.586 0,-3.882c-0.017,-1.982 -1.437,-4.544 -3.816,-3.627c-1.87,0.724 -2.02,2.744 -2.02,4.46c0,1.55 -0.299,3.528 0.467,4.94c1.666,3.082 5.369,1.129 5.369,-1.891l0,0Zm11.67,-16.131c-0.05,-1.483 -0.808,-3.124 -2.395,-3.474c-1.524,-0.329 -2.828,0.85 -3.257,2.229c-0.508,1.612 -0.183,3.773 -0.183,5.431c0,2.17 -0.234,5.981 2.915,5.981c2.82,0 2.92,-3.178 2.92,-5.227c0,-1.641 0.054,-3.295 0,-4.94Zm-38.197,29.346c1.932,0.209 3.182,-1.766 3.182,-3.49c0,-1.67 0,-3.344 0,-5.014c0,-2.02 -0.079,-5.028 -2.787,-5.173c-2.669,-0.146 -3.048,2.79 -3.048,4.781c0,1.795 -0.063,3.603 0,5.398c0.054,1.558 0.933,3.311 2.653,3.498l0,0Zm14.856,-8.738c0,-3.765 -5.839,-3.765 -5.839,0c0,3.761 5.839,3.761 5.839,0Zm194.03,22.799c-3.111,0 -2.92,3.711 -2.92,5.894c0,2.407 -0.05,4.823 0,7.226c0.034,1.495 0.692,3.136 2.27,3.57c2.116,0.574 3.503,-1.567 3.566,-3.412c0.07,-2.02 0,-4.06 0,-6.08c0,-2.316 0.633,-7.198 -2.916,-7.198l0,0Zm-14.59,19.13c0,3.761 5.835,3.761 5.835,0c0,-3.765 -5.835,-3.765 -5.835,0Zm17.506,92.042l0,-87.065c0,-1.953 -0.346,-4.735 -2.916,-4.735c-2.42,0 -2.92,2.586 -2.92,4.477l0,12.079c0,1.528 0.192,3.248 -0.553,4.639c-0.692,1.304 -2.162,2.145 -3.549,1.312c-1.254,-0.749 -1.695,-2.307 -1.733,-3.677c-0.041,-1.733 0,-3.478 0,-5.215c0,-1.612 0.059,-3.232 0,-4.84c-0.05,-1.441 -0.766,-3.007 -2.27,-3.415c-1.557,-0.425 -2.932,0.762 -3.382,2.191c-0.287,0.916 -0.183,1.991 -0.183,2.94l0,18.934c0,2.508 0.071,5.027 0,7.535c-0.041,1.533 -0.72,3.523 -2.42,3.911c-1.599,0.362 -2.794,-1.067 -3.207,-2.445c-0.45,-1.52 -0.208,-3.286 -0.208,-4.865c0,-2.003 0,-4.002 0,-6.006c0,-0.954 -0.033,-1.878 -0.537,-2.728c-0.8,-1.353 -2.495,-1.953 -3.849,-1.004c-1.557,1.088 -1.449,2.941 -1.449,4.607c0,2.141 0,4.282 0,6.422c0,3.074 0.096,6.164 0,9.238c-0.046,1.533 -0.716,3.528 -2.42,3.911c-1.587,0.363 -2.624,-1.249 -3.065,-2.54c-0.471,-1.358 -0.35,-2.833 -0.35,-4.245c0,-4.315 0,-8.629 0,-12.944c0,-1.35 0.179,-2.887 -0.538,-4.09c-0.803,-1.358 -2.494,-1.958 -3.852,-1.008c-1.162,0.816 -1.437,2.166 -1.445,3.494c-0.021,3.607 0,7.214 0,10.821c0,1.891 0.004,4.356 -2.07,5.21c-1.508,0.621 -2.858,-0.545 -3.407,-1.887c-0.446,-1.099 -0.317,-2.207 -0.363,-3.352c-0.054,-1.521 -0.874,-3.199 -2.524,-3.466c-1.599,-0.262 -2.869,1.079 -3.207,2.537c-0.287,1.258 -0.104,2.732 -0.104,4.002c0,3.924 0.038,7.847 0,11.766c-0.008,1.025 -0.183,2.045 -0.775,2.912c-0.883,1.291 -2.515,1.724 -3.744,0.625c-1.732,-1.546 -1.316,-4.324 -1.316,-6.406c0,-2.074 0.392,-5.061 -2.02,-5.994c-1.508,-0.583 -2.974,0.438 -3.532,1.833c-0.4,1.004 -0.283,2.162 -0.283,3.224l0,42.924c0,0.366 -0.117,0.975 0,1.329c0.075,0.224 -0.05,0.17 0.092,0.274c0.179,0.125 0.912,0 1.12,0l61.95,0c0.375,0 0.87,0.109 1.029,-0.133c0.12,-0.191 0,-0.866 0,-1.087l0,0Zm-43.766,-38.63c-3.761,0 -3.761,-5.835 0,-5.835c3.765,0 3.765,5.835 0,5.835Zm35.015,-20.671c-3.765,0 -3.765,-5.835 0,-5.835c3.761,0 3.761,5.835 0,5.835Zm-55.44,-4.86c0,3.761 5.835,3.761 5.835,0c0,-3.766 -5.835,-3.766 -5.835,0Zm12.207,-5.323c-0.787,1.324 -0.537,3.169 -0.537,4.66c0,2.004 0.196,5.036 2.92,5.036c2.228,0 2.915,-2.345 2.915,-4.157c0,-1.458 0.246,-3.174 -0.141,-4.598c-0.679,-2.491 -3.736,-3.336 -5.157,-0.941Zm-9.025,10.2c-2.233,-0.246 -3.207,2.12 -3.182,3.956c0,1.775 0.508,4.028 2.653,4.265c2.253,0.242 3.174,-2.128 3.182,-3.956c0.008,-1.775 -0.512,-4.032 -2.653,-4.265l0,0Zm34.753,-11.608c2.665,0 2.915,-2.945 2.915,-4.94c0,-1.745 0.062,-3.502 0,-5.248c-0.05,-1.478 -0.82,-3.107 -2.395,-3.448c-1.524,-0.333 -2.824,0.845 -3.257,2.224c-0.504,1.616 -0.183,3.773 -0.183,5.435c0,2.166 -0.233,5.977 2.92,5.977l0,0Zm-14.59,-2.995c0,3.761 5.835,3.761 5.835,0c0,-3.765 -5.835,-3.765 -5.835,0Z" style="fill:none;stroke:#47f8e8;stroke-width:2.45px;"/><path d="M1846.74,250.618c0,2.957 3.423,2.92 5.539,2.92c2.174,0 4.361,0.066 6.535,0c1.462,-0.05 3.057,-0.733 3.473,-2.27c0.513,-1.879 -1.224,-3.34 -2.936,-3.536c-1.887,-0.221 -3.886,-0.029 -5.777,-0.029c-2.274,0 -6.834,-0.533 -6.834,2.915l0,0Zm-4.278,14.59l12.408,0c1.149,0 2.336,0.1 3.386,-0.471c2.511,-1.353 1.757,-4.523 -0.817,-5.222c-0.92,-0.25 -2.011,-0.142 -2.965,-0.142c-3.332,0 -6.664,0 -9.996,0c-1.233,0 -2.641,-0.162 -3.782,0.4c-3.198,1.57 -1.349,5.435 1.766,5.435l0,0Zm0,-23.345c1.67,0 3.345,0 5.015,0c2.02,0 5.023,-0.079 5.173,-2.782c0.145,-2.674 -2.791,-3.053 -4.782,-3.053c-1.795,0 -3.602,-0.058 -5.397,0c-1.558,0.054 -3.312,0.933 -3.499,2.653c-0.208,1.933 1.766,3.182 3.49,3.182l0,0Zm18.751,29.18c-2.158,0 -4.315,0 -6.472,0c-2.166,0 -5.781,-0.629 -7.36,1.237c-1.508,1.787 -0.079,4.028 1.933,4.494c0.803,0.183 1.72,0.104 2.544,0.104c2.783,0 5.565,0 8.343,0c1.416,0 2.874,-0.054 3.873,-1.237c1.825,-2.161 -0.537,-4.598 -2.861,-4.598l0,0Zm-19.338,0c-3.761,0 -3.761,5.835 0,5.835c3.765,0 3.765,-5.835 0,-5.835Zm0,-40.85c3.765,0 3.765,-5.835 0,-5.835c-3.761,0 -3.761,5.835 0,5.835Zm13.524,-13.34c1.058,-1.858 -0.542,-3.732 -2.387,-4.09c-0.754,-0.146 -1.587,-0.075 -2.357,-0.075c-2.533,0 -5.069,0 -7.601,0c-1.446,0 -2.974,0.295 -3.757,1.67c-1.246,2.191 1.07,4.165 3.161,4.165c2.028,0 4.057,0 6.085,0c2.162,0 5.577,0.579 6.856,-1.67Zm-13.524,36.685c3.765,0 3.765,-5.835 0,-5.835c-3.761,0 -3.761,5.835 0,5.835Zm148.078,-102.913c-0.255,-11.932 -2.333,-23.628 -6.706,-34.761c-4.344,-11.066 -10.775,-21.279 -18.805,-30.042c-16.439,-17.938 -39.372,-29.221 -63.637,-31.2c-6.247,-0.512 -12.57,-0.329 -18.834,-0.329c-4.502,0 -9.004,-0.041 -13.507,0.005c-22.591,0.229 -44.465,8.009 -61.866,22.486c-18.797,15.636 -31.209,38.272 -34.232,62.533c-0.813,6.531 -0.746,13.078 -0.746,19.638l0,186.162c0,0.609 -0.133,0.613 0.491,0.633c2.379,0.071 4.769,0 7.148,0l55.594,0c0.129,0 0.858,0.1 0.958,0c0.133,-0.137 0,-1.066 0,-1.245l0,-178.544c0,-4.661 -0.009,-9.326 -0.004,-13.986c0.008,-5.685 1.22,-11.204 3.96,-16.219c2.808,-5.131 6.935,-9.471 11.933,-12.511c4.902,-2.982 10.421,-4.569 16.152,-4.732c2.399,-0.066 4.806,-0.025 7.21,-0.025c4.764,0 9.529,0 14.298,0c2.899,0 5.798,-0.05 8.671,0.396c5.894,0.92 11.5,3.507 16.04,7.372c4.477,3.811 7.976,8.776 9.9,14.34c1.441,4.169 1.803,8.417 1.803,12.786c0,9.134 0.225,18.297 -0.029,27.423c-0.329,11.932 -7.426,22.94 -18.043,28.351c-4.581,2.336 -9.562,3.428 -14.681,3.532c-1.866,0.037 -3.736,0.004 -5.602,0.004l-22.72,0c-0.929,0 -1.866,-0.029 -2.795,0c-1.816,0.05 -3.977,1.32 -3.515,3.44c0.625,2.87 4.29,2.395 6.51,2.395c3.224,0 6.452,0 9.675,0c2.27,0 6.194,-0.541 7.131,2.182c0.804,2.333 -2,3.599 -3.857,3.653c-0.75,0.021 -1.504,0 -2.253,0l-23.008,0c-1.153,0 -2.395,-0.125 -3.461,0.4c-2.216,1.091 -2.232,3.936 0,5.035c0.9,0.442 1.849,0.4 2.812,0.4l34.311,0c0.745,0 1.524,-0.046 2.257,0.096c2.145,0.412 4.132,2.724 2.128,4.619c-1.553,1.462 -4.06,1.12 -6.031,1.12l-22.849,0c-1.299,0 -2.815,-0.191 -4.094,0.104c-2.261,0.525 -3.548,3.195 -1.545,4.874c1.441,1.207 3.778,0.858 5.531,0.858l23.345,0c1.345,0 2.845,-0.175 4.131,0.254c2.233,0.741 3.287,3.294 1.075,4.806c-1.749,1.195 -4.59,0.775 -6.606,0.775c-3.282,0 -6.568,0 -9.85,0c-1.87,0 -3.736,-0.013 -5.606,0c-1.899,0.012 -4.431,1.062 -3.915,3.44c0.412,1.887 2.378,2.395 4.036,2.395c2.511,0 5.035,-0.067 7.547,0c1.849,0.05 4.69,1.299 3.873,3.652c-0.591,1.704 -2.599,2.175 -4.186,2.187c-2.869,0.021 -5.743,0 -8.613,0c-1.116,0 -2.295,-0.108 -3.327,0.4c-2.233,1.095 -2.241,3.932 0,5.035c1.091,0.538 2.394,0.4 3.577,0.4l18.826,0c1.345,0 2.707,0.05 3.819,0.942c2.129,1.707 0.6,4.152 -1.603,4.727c-1.929,0.504 -4.482,0.166 -6.46,0.166c-3.132,0 -6.268,0 -9.405,0c-0.812,0 -1.707,-0.083 -2.507,0.105c-2.27,0.524 -3.549,3.194 -1.541,4.873c1.191,0.999 2.711,0.858 4.152,0.858c1.496,0 2.991,0 4.49,0c4.682,0 9.367,-0.009 14.053,0c9.055,0.012 17.993,-0.908 26.777,-3.224c21.154,-5.573 40.138,-18.53 53.161,-36.094c7.118,-9.596 12.437,-20.521 15.619,-32.033c2.603,-9.425 3.453,-19.042 3.453,-28.78c0.004,-8.709 0.083,-17.422 -0.008,-26.127l0,0Zm-126.062,-88.697c2.262,-2.433 6.131,0.812 4.073,3.469c-2.186,2.816 -6.451,-0.829 -4.073,-3.469l0,0Zm-18.297,2.066c3.765,-0.95 7.664,-1.9 11.546,-2.224c1.545,-0.13 3.432,0.487 3.594,2.294c0.179,1.991 -1.849,2.874 -3.469,3.074c-2.045,0.254 -4.074,0.621 -6.09,1.05c-1.616,0.341 -3.336,1.012 -4.985,1.108c-1.375,0.075 -2.895,-0.733 -3.078,-2.212c-0.187,-1.508 1.145,-2.711 2.482,-3.09l0,0Zm-64.574,87.235c-3.373,0.021 -3.394,-5.352 0.021,-5.343c3.49,0.004 3.49,5.322 -0.021,5.343l0,0Zm5.457,-21.554c-0.534,2.133 -1.021,4.274 -1.417,6.435c-0.316,1.716 -0.258,3.765 -0.916,5.386c-0.516,1.27 -1.845,2.315 -3.261,1.857c-1.654,-0.537 -1.933,-2.357 -1.758,-3.84c0.263,-2.237 0.663,-4.456 1.125,-6.656c0.337,-1.595 0.575,-3.319 1.149,-4.848c0.504,-1.324 1.858,-2.561 3.37,-2.103c1.549,0.471 2.116,2.332 1.708,3.769l0,0Zm-0.796,-6.143c-1.566,-0.425 -2.074,-2.262 -1.678,-3.686c0.383,-1.354 1.012,-2.707 1.582,-3.994c2.441,-5.535 5.281,-10.904 8.772,-15.852c7.672,-10.871 17.48,-20.15 29.03,-26.806c3.711,-2.137 7.542,-4.073 11.528,-5.643c1.337,-0.525 2.745,-1.308 4.215,-0.838c1.45,0.463 2.17,1.97 1.512,3.366c-0.85,1.795 -3.349,2.245 -5.019,2.944c-8.067,3.395 -15.598,8.126 -22.241,13.816c-9.833,8.429 -17.455,18.975 -22.728,30.77c-0.554,1.25 -1.037,2.533 -1.537,3.807c-0.516,1.337 -1.924,2.524 -3.436,2.116l0,0Zm6.685,33.099c-3.47,0 -3.428,-5.348 0,-5.348c3.428,0 3.478,5.348 0,5.348l0,0Zm4.386,-21.125c-0.471,2.191 -0.863,4.403 -1.137,6.627c-0.196,1.558 -0.025,3.486 -0.659,4.948c-0.545,1.254 -1.89,2.207 -3.273,1.674c-1.616,-0.62 -1.825,-2.378 -1.72,-3.869c0.154,-2.145 0.429,-4.282 0.783,-6.406c0.254,-1.533 0.387,-3.269 0.97,-4.723c0.5,-1.237 1.762,-2.324 3.165,-1.945c1.554,0.417 2.208,2.249 1.871,3.694l0,0Zm6.963,15.723c-3.532,0.029 -3.265,-5.635 0.238,-5.343c3.348,0.283 3.165,5.318 -0.238,5.343Zm6.394,-21.112c-0.75,2.041 -1.375,4.123 -1.895,6.235c-0.413,1.683 -0.475,3.682 -1.196,5.269c-0.595,1.32 -2.103,2.336 -3.54,1.628c-1.549,-0.766 -1.608,-2.553 -1.345,-4.019c0.375,-2.095 0.845,-4.169 1.42,-6.214c0.471,-1.666 0.912,-3.457 1.653,-5.027c0.613,-1.287 2.108,-2.391 3.562,-1.775c1.478,0.625 1.874,2.512 1.341,3.903l0,0Zm-0.3,-6.214c-3.357,-1.57 0.225,-6.273 1.366,-8.114c1.766,-2.836 3.723,-5.552 5.889,-8.092c4.423,-5.194 9.584,-9.713 15.327,-13.391c1.396,-0.891 2.816,-1.757 4.278,-2.528c0.929,-0.491 1.928,-0.833 2.978,-0.537c1.212,0.346 1.924,1.458 1.716,2.699c-0.238,1.403 -1.333,2.099 -2.483,2.732c-5.797,3.19 -11.103,7.28 -15.623,12.12c-2.611,2.799 -4.968,5.814 -7.038,9.034c-0.925,1.437 -1.754,2.924 -2.591,4.411c-0.729,1.291 -2.307,2.374 -3.819,1.666l0,0Zm9.333,15.668c-0.837,2.72 -1.003,5.69 -1.245,8.505c-0.121,1.446 -0.987,2.941 -2.561,3.132c-1.658,0.204 -2.674,-1.391 -2.778,-2.861c-0.113,-1.666 0.2,-3.382 0.449,-5.023c0.23,-1.524 0.425,-3.053 0.817,-4.544c0.358,-1.37 1.149,-2.928 2.765,-3.024c1.958,-0.112 2.978,2.162 2.553,3.815l0,0Zm-0.728,-6.018c-1.991,-0.437 -2.166,-2.878 -1.479,-4.419c1.741,-3.919 3.89,-7.676 6.431,-11.129c4.877,-6.614 11.27,-12.337 18.546,-16.206c2.254,-1.199 4.619,-2.253 7.01,-3.128c2.033,-0.745 6.473,-2.824 7.272,0.567c0.575,2.445 -2.012,3.19 -3.723,3.827c-1.108,0.413 -2.212,0.829 -3.32,1.241c-3.111,1.163 -6.101,2.92 -8.88,4.736c-8.009,5.24 -13.94,12.924 -18.063,21.446c-0.746,1.545 -1.683,3.531 -3.794,3.065l0,0Zm27.151,-45.781c3.703,-1.354 7.635,-2.516 11.55,-3.062c1.432,-0.2 3.203,0.329 3.582,1.92c0.362,1.525 -0.879,2.791 -2.225,3.232c-1.924,0.633 -4.056,0.808 -6.018,1.337c-1.812,0.488 -3.549,1.221 -5.352,1.7c-1.42,0.374 -3.236,-0.121 -3.694,-1.679c-0.45,-1.524 0.824,-2.936 2.157,-3.448l0,0Zm19.871,23.361c-1.341,1.32 -3.511,1.116 -5.218,1.528c-1.225,0.3 -2.491,0.571 -3.686,0.983c-4.882,1.687 -9.384,4.115 -13.366,7.418c-5.385,4.469 -9.404,10.458 -11.774,17.014c-1.441,3.986 -2.033,7.993 -2.258,12.195c-0.075,1.391 0.213,3.061 -0.262,4.398c-0.471,1.321 -1.833,2.35 -3.257,1.816c-2.687,-0.999 -1.899,-4.981 -1.787,-7.201c0.233,-4.715 1.108,-9.367 2.774,-13.803c2.416,-6.426 6.435,-12.465 11.533,-17.08c2.545,-2.303 5.248,-4.257 8.188,-6.039c3.124,-1.9 6.714,-3.366 10.263,-4.286c1.137,-0.292 2.27,-0.646 3.427,-0.829c1.579,-0.254 3.578,-0.883 5.007,0.037c1.383,0.896 1.603,2.674 0.416,3.849l0,0Zm0.071,-10.562c-1.199,0.095 -2.416,0.254 -3.615,0.316c-1.041,0.054 -2.128,-0.358 -2.762,-1.216c-1.566,-2.149 0.867,-3.89 2.804,-4.194c1.807,-0.283 4.781,-0.792 6.118,0.866c1.495,1.862 -0.567,4.128 -2.545,4.228l0,0Zm0.262,-16.785c3.466,-0.117 3.653,5.26 0.221,5.343c-3.436,0.109 -3.677,-5.227 -0.221,-5.343Zm5.511,27.972c-3.47,0 -3.428,-5.348 0,-5.348c3.428,0 3.478,5.348 0,5.348l0,0Zm4.494,-34.041c-4.111,0.009 -8.247,-0.104 -12.345,0.204c-8.289,0.621 -16.427,2.545 -24.061,5.852c-15.294,6.622 -28.401,18.684 -36.007,33.549c-1.066,2.083 -2.099,4.19 -2.948,6.373c-0.375,0.966 -0.779,1.92 -1.112,2.898c-0.234,0.683 -0.463,1.341 -0.975,1.875c-1.291,1.345 -3.532,1.287 -4.277,-0.592c-0.721,-1.824 0.545,-4.011 1.207,-5.685c0.279,-0.704 0.546,-1.412 0.858,-2.099c0.725,-1.604 1.458,-3.191 2.254,-4.757c7.588,-14.906 20.1,-27.218 35.052,-34.69c7.376,-3.686 15.344,-6.181 23.499,-7.405c4.227,-0.633 8.48,-0.85 12.749,-0.871c2.012,-0.008 4.036,-0.066 6.047,0c1.517,0.05 3.266,0.946 3.266,2.674c0,1.658 -1.708,2.674 -3.207,2.674l0,0Zm12.786,146.641c-3.761,0 -3.761,-5.835 0,-5.835c3.765,0 3.765,5.835 0,5.835Zm-0.079,35.015c-3.765,0 -3.765,-5.835 0,-5.835c3.761,0 3.761,5.835 0,5.835Zm77.773,11.745c0.608,1.196 1.62,2.383 3.003,2.657c1.203,0.242 2.228,-0.416 2.62,-1.561c0.466,-1.354 0.037,-2.745 -0.538,-3.986c-0.737,-1.591 -1.562,-3.137 -2.378,-4.686c-0.879,-1.674 -1.737,-3.365 -2.691,-4.998c-0.72,-1.233 -1.62,-2.441 -3.057,-2.87c-1.32,-0.391 -2.549,0.259 -2.94,1.591c-0.425,1.458 0.171,2.883 0.895,4.124c1.854,3.157 3.428,6.468 5.086,9.729l0,0Zm-30.992,9.834c-2.17,1.153 -1.395,3.582 -0.575,5.314c0.688,1.454 1.3,2.974 2.07,4.386c0.683,1.249 2.12,2.145 3.566,1.724c1.47,-0.429 2.115,-2.028 1.899,-3.444c-0.233,-1.529 -1.3,-3.128 -1.945,-4.498c-0.896,-1.891 -2.378,-4.882 -5.015,-3.482l0,0Zm19.642,-12.791c3.37,-1.808 0.196,-7.497 -3.119,-5.735c-3.416,1.812 -0.238,7.547 3.119,5.735Zm27.864,30.284c-1.012,-3.753 -2.153,-7.489 -3.474,-11.137c-0.433,-1.192 -0.87,-2.375 -1.299,-3.562c-0.7,-1.92 -1.262,-4.227 -2.541,-5.856c-1.074,-1.366 -3.244,-2.365 -4.469,-0.591c-1.312,1.903 -0.104,4.153 0.621,6.002c0.52,1.333 0.995,2.682 1.483,4.027c0.466,1.3 0.82,2.728 0.362,4.09c-0.921,2.708 -3.619,1.641 -4.89,-0.154c-1.312,-1.849 -1.774,-4.348 -2.636,-6.435c-0.858,-2.078 -1.729,-4.148 -2.612,-6.218c-0.77,-1.812 -1.661,-3.586 -2.511,-5.364c-0.646,-1.35 -1.72,-2.666 -3.336,-2.758c-2.374,-0.133 -2.87,2.591 -2.299,4.378c0.766,2.399 2.207,4.644 3.19,6.968c2.266,5.352 4.34,10.762 6.073,16.314c0.666,2.137 2.003,5.015 0.395,7.076c-1.366,1.754 -3.503,0.504 -4.431,-1.004c-0.646,-1.053 -0.912,-2.319 -1.275,-3.49c-0.45,-1.449 -0.891,-2.899 -1.378,-4.34c-0.438,-1.299 -0.921,-2.586 -1.396,-3.877c-0.616,-1.683 -1.249,-3.349 -1.941,-5.002c-0.891,-2.133 -2.294,-6.939 -5.556,-5.423c-2.378,1.108 -1.366,4.011 -0.616,5.789c1.137,2.707 2.187,5.431 3.199,8.184c1.033,2.808 1.978,5.681 2.79,8.559c0.487,1.733 0.392,4.723 -1.937,5.044c-2.623,0.358 -3.481,-2.795 -4.056,-4.66c-0.85,-2.758 -1.725,-5.507 -2.737,-8.214c-0.612,-1.628 -1.67,-3.444 -3.736,-3.078c-2.12,0.379 -2.561,2.782 -1.961,4.515c0.437,1.258 1.12,2.528 0.916,3.899c-0.325,2.165 -2.52,3.211 -4.315,1.857c-2.028,-1.537 -2.27,-4.802 -3.319,-6.98c-0.892,-1.845 -3.278,-2.753 -4.844,-1.079c-1.783,1.912 -0.009,4.631 0.712,6.618c0.754,2.078 1.462,4.153 2.128,6.256c0.629,1.974 1.854,4.835 -0.391,6.297c-2.037,1.329 -3.932,-0.541 -4.494,-2.403c-0.792,-2.624 -1.645,-5.231 -2.599,-7.801c-0.604,-1.628 -1.216,-3.236 -1.887,-4.835c-0.554,-1.321 -0.979,-2.733 -2.582,-3.066c-1.999,-0.412 -3.899,1.37 -3.532,3.395c0.2,1.116 0.862,2.228 1.295,3.261c0.904,2.145 1.716,4.369 2.412,6.585c2.786,8.883 4.694,17.884 5.393,27.189c0.113,1.524 0.2,3.048 0.254,4.577c0.03,0.691 0.046,1.387 0.063,2.082c0.004,0.284 -0.129,1.554 0.029,1.666c0.212,0.146 1.025,0 1.27,0l62.912,0c-0.07,-10.695 -1.137,-21.254 -2.886,-31.791c-0.795,-5.231 -2.182,-10.404 -3.561,-15.51l0,0Zm-41.558,14.007c-1.512,0.383 -3.32,-0.429 -3.549,-2.091c-0.204,-1.508 0.958,-2.857 2.403,-3.149c3.549,-0.716 4.599,4.365 1.146,5.24Zm33.928,-8.647c-3.753,0.95 -5.415,-5.644 -1.683,-6.56c3.703,-0.912 5.365,5.631 1.683,6.56l0,0Zm-63.171,-22.312c-1.711,-2.628 -6.584,0.596 -4.91,3.153c1.67,2.553 6.639,-0.521 4.91,-3.153Zm12.591,10.658c1.358,2.545 5.435,2.224 5.585,-0.953c0.063,-1.358 -0.866,-2.778 -1.457,-3.936c-0.85,-1.675 -1.716,-3.353 -2.633,-4.99c-1.153,-2.062 -3.34,-7.13 -6.493,-4.615c-1.233,0.983 -1.316,2.683 -0.62,4.003c0.953,1.807 2.095,3.507 3.015,5.335c0.904,1.699 1.699,3.461 2.603,5.156l0,0Zm-6.793,-0.604c-1.091,-2.057 -2.316,-6.255 -5.398,-5.497c-1.295,0.316 -2.29,1.545 -2.282,2.886c0.008,0.741 0.391,1.329 0.729,1.958c0.691,1.278 1.274,3.136 2.407,4.102c2.245,1.916 6.081,-0.708 4.544,-3.449l0,0Zm28.993,-11.507c1.345,-0.03 2.274,-1.129 2.449,-2.404c0.233,-1.716 -1,-3.411 -1.771,-4.868c-0.866,-1.637 -1.682,-3.678 -3.765,-4.011c-1.253,-0.204 -2.395,0.508 -2.803,1.712c-0.416,1.237 0.017,2.399 0.6,3.494c0.691,1.308 1.383,2.616 2.074,3.923c0.633,1.146 1.837,2.183 3.216,2.154l0,0Zm-15.144,-5.602c-3.253,1.953 -0.317,6.743 2.903,4.789c3.186,-1.94 0.258,-6.688 -2.903,-4.789Z" style="fill:none;stroke:#477ef8;stroke-width:2.45px;"/><path d="M2046.35,245.245c3.111,0 2.92,-3.711 2.92,-5.889c0,-2.407 0.05,-4.823 0,-7.23c-0.034,-1.491 -0.687,-3.137 -2.27,-3.566c-2.116,-0.579 -3.503,1.562 -3.565,3.412c-0.071,2.02 0,4.056 0,6.08c0,2.312 -0.633,7.193 2.915,7.193l0,0Zm14.59,-19.125c0,-3.765 -5.835,-3.765 -5.835,0c0,3.761 5.835,3.761 5.835,0Zm208.995,8.284c4.823,-7.972 8.375,-17.006 9.879,-26.219c1.066,-6.535 1.416,-13.028 1.416,-19.633c0.004,-7.731 0.004,-15.469 0,-23.199c-0.212,-10.046 -1.37,-19.901 -4.098,-29.597c-2.987,-10.6 -7.547,-20.708 -13.532,-29.954c-11.608,-17.922 -28.38,-32.362 -47.893,-41.054c-9.272,-4.128 -19.255,-7.114 -29.334,-8.405c-5.952,-0.767 -11.904,-1.096 -17.901,-1.096c-6.206,0 -12.412,-0.062 -18.601,0.533c-11.566,1.117 -22.912,3.932 -33.662,8.351c-19.525,8.026 -36.772,21.512 -49.388,38.418c-12.482,16.722 -20.146,36.414 -22.649,57.102c-1.108,9.171 -0.737,18.521 -0.737,27.751l0,33.332c0,0.933 -0.1,1.958 0.183,2.858c0.608,1.949 2.857,3.073 4.511,1.549c1.528,-1.412 1.141,-3.998 1.141,-5.898c0,-2.869 0,-5.739 0,-8.605c0,-1.965 -0.388,-4.631 0.774,-6.334c1.208,-1.771 3.387,-1.562 4.436,0.245c0.604,1.037 0.625,2.179 0.625,3.336c0,2.687 0,5.373 0,8.06c0,0.999 -0.058,1.999 0.4,2.928c0.899,1.832 3.203,2.349 4.577,0.708c1.091,-1.304 0.858,-3.141 0.858,-4.723l0,-23.566c0,-1.583 -0.204,-3.394 0.621,-4.819c1.049,-1.803 3.232,-2.011 4.44,-0.245c0.924,1.353 0.774,2.998 0.774,4.552c0,2.157 0,4.315 0,6.476c0,0.783 -0.021,1.566 0,2.349c0.05,1.816 1.32,3.982 3.44,3.52c2.783,-0.608 2.395,-3.99 2.395,-6.135c0,-2.799 0,-5.598 0,-8.401c0,-1.616 -0.045,-3.244 0,-4.86c0.05,-1.683 1.167,-4.503 3.37,-3.907c1.77,0.483 2.428,3.003 2.465,4.573c0.117,4.636 0,9.288 0,13.923c0,1.621 -0.324,3.749 0.234,5.315c0.687,1.933 2.982,2.911 4.56,1.316c0.929,-0.933 1.042,-2.153 1.042,-3.39c0,-2.483 0,-4.965 0,-7.447c0,-2.166 -0.492,-5.311 1.124,-7.022c1.525,-1.616 3.607,-0.608 4.353,1.22c0.533,1.308 0.354,2.832 0.358,4.215c0.008,1.683 0.704,3.707 2.653,3.915c1.987,0.217 3.124,-1.783 3.182,-3.503c0.154,-4.535 0,-9.1 0,-13.64c0,-1.012 0.029,-2.008 0.487,-2.936c0.887,-1.82 3.036,-2.445 4.411,-0.733c1.104,1.378 0.891,3.065 0.941,4.702c0.05,1.82 1.316,3.986 3.44,3.523c3.145,-0.687 2.395,-5.231 2.395,-7.567c0,-1.779 0.004,-3.557 0.05,-5.336c0.234,-8.713 2.787,-17.347 7.181,-24.86c5.064,-8.655 12.557,-15.852 21.424,-20.538c7.947,-4.202 16.731,-6.114 25.682,-6.114c5.427,0 10.987,-0.304 16.356,0.591c10.816,1.808 20.766,7.451 27.842,15.848c6.735,7.997 10.605,18.089 10.85,28.547c0.088,3.686 0.029,7.376 0.029,11.062c0,4.39 0,8.784 0.005,13.174c0,2.54 0.045,5.044 -0.317,7.563c-0.612,4.249 -3.032,7.293 -6.622,9.53c-4.332,2.699 -9.367,4.248 -14.324,5.302c-4.781,1.016 -9.683,1.587 -14.573,1.645c-2.441,0.025 -4.885,-0.012 -7.326,-0.012l-53.533,0c-3.831,0 -7.688,-0.109 -11.516,0.058c-10.162,0.446 -20.05,2.716 -29.109,7.43c-18.955,9.867 -32.433,28.551 -35.523,49.73c-1.312,9.005 -0.766,18.314 -0.766,27.393l0,47.61c0,0.121 -0.088,0.712 0,0.812c0.087,0.096 0.574,0.025 0.716,0.025l62.283,0c0.188,0 0.983,0.129 1.137,0c0.092,-0.075 0.013,-0.17 0.054,-0.325c0.271,-1.024 0,-2.507 0,-3.565l0,-59.851c0,-0.816 -0.05,-1.661 0.046,-2.469c0.2,-1.662 1.454,-2.579 3.07,-2.654c3.615,-0.174 7.276,0 10.895,0l54.457,0c2.599,0 5.198,0.025 7.797,-0.037c11.142,-0.258 22.337,-1.92 33.074,-4.923c21.375,-5.977 41.296,-18.213 52.971,-37.518l0,0Zm-217.746,-35.194c-3.765,0 -3.765,-5.835 0,-5.835c3.761,0 3.761,5.835 0,5.835Zm35.011,-16.777c-3.761,0 -3.761,-5.835 0,-5.835c3.765,0 3.765,5.835 0,5.835Zm17.506,25.465c3.765,0 3.765,-5.835 0,-5.835c-3.761,0 -3.761,5.835 0,5.835Zm-8.751,-1.816c0,-1.291 0.008,-2.586 0,-3.882c-0.017,-1.982 -1.437,-4.544 -3.815,-3.627c-1.87,0.724 -2.02,2.744 -2.02,4.46c0,1.55 -0.3,3.528 0.466,4.94c1.666,3.082 5.369,1.129 5.369,-1.891l0,0Zm11.67,-16.131c-0.05,-1.483 -0.808,-3.124 -2.395,-3.474c-1.524,-0.329 -2.828,0.85 -3.257,2.229c-0.508,1.612 -0.183,3.773 -0.183,5.431c0,2.17 -0.233,5.981 2.916,5.981c2.819,0 2.919,-3.178 2.919,-5.227c0,-1.641 0.054,-3.295 0,-4.94Zm-38.197,29.346c1.933,0.209 3.182,-1.766 3.182,-3.49c0,-1.67 0,-3.344 0,-5.014c0,-2.02 -0.079,-5.028 -2.786,-5.173c-2.67,-0.146 -3.049,2.79 -3.049,4.781c0,1.795 -0.062,3.603 0,5.398c0.054,1.558 0.933,3.311 2.653,3.498l0,0Zm14.857,-8.738c0,-3.765 -5.84,-3.765 -5.84,0c0,3.761 5.84,3.761 5.84,0Zm194.03,22.799c-3.112,0 -2.92,3.711 -2.92,5.894c0,2.407 -0.05,4.823 0,7.226c0.033,1.495 0.691,3.136 2.27,3.57c2.116,0.574 3.503,-1.567 3.565,-3.412c0.071,-2.02 0,-4.06 0,-6.08c0,-2.316 0.633,-7.198 -2.915,-7.198l0,0Zm-14.59,19.13c0,3.761 5.835,3.761 5.835,0c0,-3.765 -5.835,-3.765 -5.835,0Zm17.505,92.042l0,-87.065c0,-1.953 -0.346,-4.735 -2.915,-4.735c-2.42,0 -2.92,2.586 -2.92,4.477l0,12.079c0,1.528 0.192,3.248 -0.554,4.639c-0.691,1.304 -2.162,2.145 -3.549,1.312c-1.253,-0.749 -1.695,-2.307 -1.732,-3.677c-0.042,-1.733 0,-3.478 0,-5.215c0,-1.612 0.058,-3.232 0,-4.84c-0.05,-1.441 -0.767,-3.007 -2.27,-3.415c-1.558,-0.425 -2.932,0.762 -3.382,2.191c-0.287,0.916 -0.183,1.991 -0.183,2.94l0,18.934c0,2.508 0.07,5.027 0,7.535c-0.042,1.533 -0.721,3.523 -2.42,3.911c-1.6,0.362 -2.795,-1.067 -3.207,-2.445c-0.45,-1.52 -0.208,-3.286 -0.208,-4.865c0,-2.003 0,-4.002 0,-6.006c0,-0.954 -0.034,-1.878 -0.538,-2.728c-0.799,-1.353 -2.495,-1.953 -3.848,-1.004c-1.558,1.088 -1.45,2.941 -1.45,4.607c0,2.141 0,4.282 0,6.422c0,3.074 0.096,6.164 0,9.238c-0.045,1.533 -0.716,3.528 -2.419,3.911c-1.587,0.363 -2.624,-1.249 -3.066,-2.54c-0.471,-1.358 -0.35,-2.833 -0.35,-4.245c0,-4.315 0,-8.629 0,-12.944c0,-1.35 0.179,-2.887 -0.537,-4.09c-0.804,-1.358 -2.495,-1.958 -3.853,-1.008c-1.162,0.816 -1.437,2.166 -1.445,3.494c-0.021,3.607 0,7.214 0,10.821c0,1.891 0.004,4.356 -2.07,5.21c-1.508,0.621 -2.857,-0.545 -3.407,-1.887c-0.445,-1.099 -0.316,-2.207 -0.362,-3.352c-0.054,-1.521 -0.875,-3.199 -2.524,-3.466c-1.6,-0.262 -2.87,1.079 -3.207,2.537c-0.288,1.258 -0.104,2.732 -0.104,4.002c0,3.924 0.037,7.847 0,11.766c-0.009,1.025 -0.184,2.045 -0.775,2.912c-0.883,1.291 -2.516,1.724 -3.744,0.625c-1.733,-1.546 -1.316,-4.324 -1.316,-6.406c0,-2.074 0.391,-5.061 -2.02,-5.994c-1.508,-0.583 -2.974,0.438 -3.532,1.833c-0.4,1.004 -0.284,2.162 -0.284,3.224l0,42.924c0,0.366 -0.116,0.975 0,1.329c0.075,0.224 -0.05,0.17 0.092,0.274c0.179,0.125 0.912,0 1.12,0l61.95,0c0.375,0 0.871,0.109 1.029,-0.133c0.121,-0.191 0,-0.866 0,-1.087l0,0Zm-43.766,-38.63c-3.761,0 -3.761,-5.835 0,-5.835c3.766,0 3.766,5.835 0,5.835Zm35.015,-20.671c-3.765,0 -3.765,-5.835 0,-5.835c3.761,0 3.761,5.835 0,5.835Zm-55.44,-4.86c0,3.761 5.836,3.761 5.836,0c0,-3.766 -5.836,-3.766 -5.836,0Zm12.208,-5.323c-0.787,1.324 -0.537,3.169 -0.537,4.66c0,2.004 0.195,5.036 2.919,5.036c2.229,0 2.916,-2.345 2.916,-4.157c0,-1.458 0.246,-3.174 -0.142,-4.598c-0.679,-2.491 -3.736,-3.336 -5.156,-0.941Zm-9.026,10.2c-2.232,-0.246 -3.207,2.12 -3.182,3.956c0,1.775 0.508,4.028 2.653,4.265c2.254,0.242 3.174,-2.128 3.183,-3.956c0.008,-1.775 -0.513,-4.032 -2.654,-4.265l0,0Zm34.753,-11.608c2.666,0 2.916,-2.945 2.916,-4.94c0,-1.745 0.062,-3.502 0,-5.248c-0.05,-1.478 -0.821,-3.107 -2.395,-3.448c-1.525,-0.333 -2.824,0.845 -3.257,2.224c-0.504,1.616 -0.184,3.773 -0.184,5.435c0,2.166 -0.233,5.977 2.92,5.977l0,0Zm-14.59,-2.995c0,3.761 5.835,3.761 5.835,0c0,-3.765 -5.835,-3.765 -5.835,0Z" style="fill:none;stroke:#e447f8;stroke-width:2.45px;"/></g></svg>